<svg width="90" height="90" viewBox="0 0 90 90" fill="none" xmlns="http://www.w3.org/2000/svg">
<path fill-rule="evenodd" clip-rule="evenodd" d="M44.864 75.022C61.421 75.022 74.731 61.423 74.731 45.158C74.731 28.605 61.421 15 44.864 15C28.304 15 15 28.605 15 45.158C15 61.423 28.304 75.022 44.864 75.022ZM44.864 18.549C59.355 18.549 71.175 30.377 71.175 45.158C71.175 59.645 59.355 71.472 44.864 71.472C30.082 71.472 18.256 59.645 18.256 45.158C18.256 30.377 30.082 18.549 44.864 18.549ZM59.054 39.248V35.11L58.7663 31.9977C58.8129 32.2339 58.9761 32.3604 59.159 32.5021C59.3289 32.6338 59.5159 32.7786 59.642 33.037C64.376 38.358 65.265 46.929 62.009 53.441C61.721 54.324 60.532 56.095 59.943 56.69C59.7932 56.9832 59.4976 57.2779 59.2386 57.5362C59.0093 57.7647 58.8087 57.9648 58.7628 58.1101L59.054 56.396V39.248ZM58.753 58.168C58.753 58.1498 58.7564 58.1305 58.7628 58.1101L58.753 58.168ZM58.753 31.854L58.7663 31.9977C58.7576 31.9538 58.753 31.9062 58.753 31.854ZM33.926 39.248H55.798V51.074H33.926V39.248ZM30.671 35.11V51.074V56.396L30.965 58.462C30.671 57.874 30.082 57.279 29.488 56.69C29.2027 56.1145 28.0867 54.4389 27.4817 53.5307L27.422 53.441C24.46 46.929 25.349 38.358 30.082 33.037C30.377 32.743 30.671 32.449 30.965 31.854L30.671 35.11ZM33.926 54.324H55.798V64.673C63.787 60.24 67.631 52.258 67.331 43.386C66.442 35.992 62.31 29.193 55.798 25.349V35.992H33.926V25.349C25.944 29.788 21.505 38.653 22.394 47.819C23.577 54.617 27.422 61.123 33.926 64.673V54.324Z" fill="#081E2C" fill-opacity="0.64"/>
</svg>
