<svg width="90" height="90" viewBox="0 0 90 90" fill="none" xmlns="http://www.w3.org/2000/svg">
<path fill-rule="evenodd" clip-rule="evenodd" d="M85 67.1877C80.496 64.6139 76.4209 62.8981 72.3458 61.6113C65.6971 55.6059 58.4048 49.6005 50.6836 44.0241C48.5389 32.6568 40.6032 21.933 35.6702 17C54.7587 29.6542 74.0617 49.1716 85 67.1877ZM50.6836 44.0241C36.3137 33.7292 20.2279 24.7212 5 18.0724C16.1528 25.5791 28.5925 47.6702 33.7399 71.2627C44.8928 68.0456 61.8365 65.6863 83.9276 73.193C80.2815 69.3324 76.4209 65.4719 72.3458 61.6113C62.9089 58.6086 54.9732 58.3941 49.1823 59.0375C51.3271 54.1046 51.5416 48.9571 50.6836 44.0241Z" fill="#081E2C" fill-opacity="0.64"/>
</svg>
