<svg width="90" height="90" viewBox="0 0 90 90" fill="none" xmlns="http://www.w3.org/2000/svg">
<path fill-rule="evenodd" clip-rule="evenodd" d="M44.7006 13C27.1935 13 13 27.1925 13 44.7027C13 62.2098 27.1935 76.4054 44.7006 76.4054C62.2088 76.4054 76.4034 62.2098 76.4034 44.7027C76.4034 27.1925 62.2098 13 44.7006 13ZM44.7006 72.8266C29.1683 72.8266 16.5747 60.2341 16.5747 44.7027C16.5747 29.1683 29.1672 16.5768 44.7006 16.5768C60.2341 16.5768 72.8266 29.1683 72.8266 44.7027C72.8266 60.2341 60.2341 72.8266 44.7006 72.8266ZM63.1399 52.0947L67.7427 57.4697C67.8769 57.6225 67.9068 57.8485 67.8026 58.0374C67.6942 58.2222 67.4826 58.312 67.2813 58.2738L60.327 56.9711C60.2434 56.9546 60.1597 56.9246 60.0823 56.8803C59.848 56.744 59.7086 56.5066 59.689 56.2526C59.6261 55.4785 59.1956 54.7435 58.471 54.3254C57.8268 53.9548 57.0815 53.9074 56.4323 54.1365C54.7775 54.7187 52.8885 54.6021 51.2503 53.6544L49.1899 52.4674V65.9982H46.2883V50.792L44.7058 49.8784L43.1223 50.792V65.9992H40.2217V52.4684L38.1603 53.6555C36.5221 54.6031 34.6341 54.7197 32.9794 54.1376C32.328 53.9094 31.5837 53.9569 30.9406 54.3265C30.216 54.7445 29.7845 55.4795 29.7215 56.2537C29.7009 56.5076 29.5626 56.744 29.3262 56.8813C29.2498 56.9257 29.1662 56.9556 29.0826 56.9721L22.1272 58.2748C21.927 58.313 21.7143 58.2232 21.607 58.0385C21.4996 57.8485 21.5285 57.6214 21.6637 57.4676L26.2676 52.0947C26.3223 52.0307 26.3905 51.9739 26.4689 51.9285C26.7032 51.7943 26.9788 51.7923 27.208 51.9017C27.912 52.2341 28.7605 52.2279 29.4862 51.8098C30.1314 51.4403 30.5412 50.8168 30.6692 50.1396C30.9923 48.4147 32.0369 46.8374 33.6751 45.8929L35.7375 44.7037L24.0183 37.9383L25.4676 35.4248L38.6372 43.0274L40.2196 42.1159V40.2867L27.0501 32.6831L28.5004 30.1706L40.2196 36.937V34.5577C40.2196 32.6666 41.0619 30.9716 42.3935 29.8299C42.919 29.3819 43.2503 28.7151 43.2503 27.9708C43.2503 27.1337 42.8302 26.3925 42.1902 25.9507H42.1892C41.9817 25.8083 41.8454 25.5667 41.8454 25.2952C41.8454 25.2054 41.8599 25.1187 41.8877 25.0382L44.2392 18.3657C44.3043 18.1706 44.488 18.0312 44.7027 18.0312C44.9185 18.0312 45.1022 18.1706 45.1672 18.3657L47.5197 25.0382C47.5466 25.1187 47.561 25.2054 47.561 25.2952C47.561 25.5667 47.4258 25.8083 47.2163 25.9507C46.5752 26.3925 46.1561 27.1337 46.1561 27.9708C46.1561 28.7151 46.4885 29.3819 47.0119 29.8299C48.3424 30.9716 49.1868 32.6655 49.1868 34.5577V36.937L60.905 30.1706L62.3554 32.6831L49.1868 40.2867V42.1148L50.7693 43.0274L63.9388 35.4248L65.3892 37.9383L53.6699 44.7037L55.7314 45.8929C57.3695 46.8374 58.4142 48.4147 58.7383 50.1396H58.7373C58.8653 50.8168 59.2761 51.4403 59.9213 51.8098C60.6459 52.2279 61.4955 52.2341 62.1984 51.9017C62.4266 51.7912 62.7032 51.7943 62.9386 51.9285C63.016 51.9739 63.0831 52.0297 63.1399 52.0947ZM36.3507 51.3504L40.2186 49.1187H40.2196V47.2896L38.6372 46.375L34.7693 48.6077C34.0116 49.0454 33.7525 50.0126 34.1892 50.7714C34.6258 51.528 35.593 51.7881 36.3507 51.3504ZM43.1192 34.1468C43.1192 33.2715 43.8274 32.5623 44.7017 32.5623C45.576 32.5623 46.2852 33.2715 46.2852 34.1468V38.6114L44.7027 39.5239L43.1192 38.6114V34.1468ZM44.7027 46.8034L46.5226 45.7535V43.6498L44.7027 42.5979L42.8808 43.6498V45.7525L44.7027 46.8034ZM55.2152 50.7724C54.7775 51.528 53.8083 51.7881 53.0516 51.3515L49.1848 49.1177V47.2906L50.7672 46.376L54.6341 48.6088C55.3917 49.0464 55.6508 50.0126 55.2152 50.7724Z" fill="#081E2C" fill-opacity="0.64"/>
</svg>
