<svg width="90" height="90" viewBox="0 0 90 90" fill="none" xmlns="http://www.w3.org/2000/svg">
<path fill-rule="evenodd" clip-rule="evenodd" d="M43.6748 79.4181C43.6748 80.5534 43.6965 80.5962 44.3719 80.7938L44.4794 80.8253C44.9092 80.9514 45.1057 81.009 45.2986 80.9988C45.4609 80.9903 45.6207 80.9336 45.915 80.8293L46.0024 80.7983C46.6367 80.5743 46.6779 80.4945 46.6779 79.4898L46.6778 79.4047C46.6774 78.9965 46.6771 78.7429 46.787 78.5531C46.9672 78.242 47.4437 78.1024 48.7016 77.7341L48.8614 77.6873C51.1926 77.0039 54.0124 74.601 55.0688 72.3976C56.6199 69.1625 56.4185 65.0757 54.5677 62.2305C53.0356 59.875 51.1098 58.4451 48.4058 57.655C46.3712 57.0605 46.2388 56.6181 48.0671 56.523C49.4552 56.4509 49.6745 56.2821 49.6745 55.2858C49.6745 54.2895 49.4552 54.1208 48.0671 54.0486L46.7852 53.982L46.7278 48.4756C46.689 44.7502 46.7423 42.9934 46.8926 43.0442C47.0148 43.0854 48.9465 44.6219 51.1852 46.4585L55.2557 49.7978L54.8206 50.3687C53.7696 51.7481 53.7164 51.8699 53.9623 52.3353C54.0922 52.5812 54.5035 52.9421 54.8764 53.1375C54.9062 53.1531 54.9346 53.1682 54.9617 53.1827C54.9794 53.1922 54.9965 53.2015 55.0132 53.2105C55.2029 53.3129 55.3278 53.3803 55.4491 53.3744C55.6832 53.3629 55.9039 53.0784 56.5503 52.245C56.6248 52.149 56.7049 52.0457 56.7914 51.9346C57.0955 51.5442 57.2635 51.4717 57.443 51.6535C57.6225 51.8353 57.5434 52.2233 57.1363 53.1575C56.0917 55.5554 55.8789 57.7153 56.4469 60.1564C56.8912 62.0661 57.7052 63.5066 59.2267 65.0759C61.1847 67.0955 63.3399 67.9826 66.314 67.9931C68.8276 68.0019 70.8992 67.2953 72.9034 65.7455L73.8815 64.9891L74.7524 65.7444C75.4327 66.3342 75.7071 66.454 76.0054 66.2911C76.6212 65.9548 77.3111 65.1073 77.4458 64.5214C77.5495 64.0704 77.4238 63.8689 76.7054 63.3347C76.2294 62.9807 75.8853 62.5896 75.9407 62.4654C77.2293 59.5768 77.2454 59.5051 77.2454 56.6819V53.9492L76.3343 52.0864C74.0212 47.3575 69.206 45.3242 63.9099 46.8399C62.9974 47.1011 61.2689 48.1013 59.8427 49.1935C59.6922 49.3088 59.5004 49.3336 59.4166 49.2487C59.2253 49.0549 59.5846 48.3229 60.3167 47.4147L60.8809 46.7147L60.2312 46.0565C59.3391 45.1527 58.8901 45.2192 58.0699 46.3762C57.6886 46.914 57.3377 47.3541 57.2901 47.3541C57.2425 47.3541 55.6316 46.0584 53.7104 44.4747C51.7892 42.8911 49.6622 41.1566 48.9839 40.6203C48.3055 40.0841 47.7559 39.5951 47.7626 39.5338C47.7735 39.434 55.8126 32.8562 56.722 32.203C57.0378 31.9762 57.1819 32.0526 57.7153 32.7297L58.3392 33.5218L57.5287 34.2315L56.7183 34.9413L57.2998 35.7136L57.8813 36.4859L58.6921 35.8353C59.138 35.4775 59.55 35.1848 59.6075 35.1848C59.665 35.1848 59.9818 35.543 60.3115 35.9809L60.9109 36.7771L60.0913 37.4742L59.2717 38.1713L59.8717 38.9331L60.4717 39.6949L62.7106 37.8431L64.9495 35.9913L63.9114 35.3991C63.3405 35.0734 62.2707 34.4696 61.5341 34.0572L60.1949 33.3074L60.8185 32.7022L61.4421 32.097L63.5841 33.3149C64.7622 33.9848 65.7728 34.5328 65.8298 34.5328C65.8868 34.5328 65.6003 33.4538 65.1931 32.135L64.4527 29.7372L64.9501 29.3172C65.2236 29.0863 65.5529 28.894 65.6818 28.89C65.8106 28.8861 66.2375 29.9631 66.6303 31.2835C67.0231 32.6038 67.4082 33.724 67.4861 33.7728C67.715 33.9161 71.8892 30.386 71.8158 30.1112C71.7791 29.9734 71.5202 29.6251 71.2405 29.3371L71.187 29.2819C71.0148 29.1036 70.9046 28.9894 70.7753 28.9605C70.5451 28.9091 70.2547 29.1278 69.4473 29.7357L69.4473 29.7357L69.3066 29.8416C69.1261 29.9774 68.8316 29.8061 68.3725 29.2984L67.7019 28.5569L68.5471 27.7963L69.3922 27.0357L68.7842 26.2854L68.1761 25.535L67.416 26.1224C66.9979 26.4454 66.571 26.7097 66.4674 26.7097C66.2536 26.7097 65.3402 25.5197 65.3402 25.2411C65.3402 25.1408 66.1645 24.3949 67.172 23.5834C69.1565 21.985 69.2014 21.8666 68.3096 20.5836C67.8604 19.9374 67.2033 19.6382 66.7948 19.8939C66.6489 19.9852 65.0312 21.294 63.1999 22.8022C53.0971 31.1225 47.2388 35.8824 46.9752 35.9849C46.7238 36.0827 46.6779 34.0375 46.6779 22.734V9.36754L46.0029 9.12918C45.527 8.96109 45.0843 8.95729 44.5014 9.1163L43.6748 9.34178V11.8325V14.3231H42.6022H41.5297V13.2366V12.15H40.5644H39.5991V13.2366V14.3231H38.5266H37.454V13.2366V12.15H36.4887H35.5234V15.107C35.5234 17.3853 35.585 18.0391 35.7916 17.9558C35.9391 17.8963 37.0511 17.4458 38.2627 16.9546C39.4744 16.4635 40.5121 16.0616 40.5687 16.0616C40.6253 16.0616 40.6717 16.4426 40.6717 16.9083V17.7549L38.282 18.7236L35.8924 19.6922L38.2807 20.6476L40.6689 21.603L40.6703 22.4179C40.671 22.8661 40.5918 23.2328 40.4941 23.2328C40.3965 23.2328 39.6967 22.9774 38.9389 22.6653C38.1812 22.3532 37.1028 21.9146 36.5424 21.6906L35.5234 21.2834V24.2138V27.1443H36.4887H37.454V26.0578V24.9713H38.5266H39.5991V26.0578V27.1443H40.5644H41.5297V26.0578V24.9713H42.6022H43.6748V30.5126C43.6748 33.5604 43.6179 36.054 43.5483 36.054C43.4325 36.054 41.7441 34.6896 34.8799 29.049C33.9714 28.3025 33.1333 27.6129 32.3598 26.9764L32.3586 26.9755C24.8318 20.7824 23.4214 19.622 22.7502 19.9543C22.5954 20.031 22.4799 20.187 22.3378 20.379L22.3378 20.379C22.2745 20.4646 22.2058 20.5573 22.1261 20.6534C21.238 21.7226 21.396 22.0954 23.4037 23.6674C24.3959 24.4443 25.212 25.1541 25.2173 25.2448C25.2302 25.4642 24.1281 26.7097 23.921 26.7097C23.8315 26.7097 23.4716 26.4653 23.121 26.1665C22.3232 25.4864 22.2354 25.4952 21.5903 26.3207L21.0639 26.9941L21.8584 27.6898C22.2954 28.0725 22.6529 28.4539 22.6529 28.5373C22.6529 28.6208 22.371 28.9947 22.0264 29.3682L21.3999 30.0473L20.6464 29.465C20.232 29.1448 19.8081 28.8828 19.7044 28.8828C19.5338 28.8828 18.5772 30.048 18.5772 30.2558C18.5772 30.4139 22.8949 33.9255 22.9815 33.8378C23.0282 33.7905 23.3962 32.6846 23.7992 31.3803C24.2022 30.076 24.6238 28.9779 24.736 28.94C24.8482 28.9021 25.1867 29.0677 25.4883 29.3081L26.0366 29.745L25.3096 32.066C24.9097 33.3425 24.6178 34.4227 24.6609 34.4664C24.7041 34.5101 25.6802 34.0061 26.8301 33.3464L28.9209 32.1469L29.5408 32.5941C29.8818 32.84 30.1607 33.1168 30.1607 33.2091C30.1607 33.3014 29.1428 33.9415 27.8987 34.6316C26.6545 35.3217 25.6651 35.9649 25.6999 36.0609C25.7804 36.2829 29.7893 39.529 29.9843 39.5301C30.1966 39.5313 31.019 38.4274 31.0173 38.1435C31.0165 38.0102 30.681 37.6702 30.2718 37.3879C29.4765 36.8392 29.483 36.702 30.3524 35.6737C30.8849 35.0438 30.9731 35.0546 31.7829 35.8499L32.4603 36.515L33.0266 35.8332C33.7402 34.974 33.735 34.8696 32.9493 34.2812C32.151 33.6832 32.1379 33.2549 32.8957 32.524L33.4856 31.9551L37.9903 35.637C40.4679 37.662 42.495 39.4208 42.495 39.5455C42.495 39.6701 40.4196 41.4773 37.883 43.5615L33.2711 47.3509L32.3849 46.3236C31.5747 45.3842 31.4492 45.3145 30.9202 45.5102C30.6019 45.6279 30.1865 45.9855 29.9971 46.3049C29.6618 46.8702 29.6743 46.9124 30.4702 47.8963C31.6456 49.3494 31.2119 49.5482 29.461 48.3588C27.2478 46.8553 25.9475 46.4456 23.2964 46.4165C21.4625 46.3964 20.8079 46.4807 19.7728 46.87C14.06 49.0186 11.5014 55.4267 14.0135 61.2945L14.5852 62.6299L13.7926 63.3041C13.3567 63.6748 13 64.1053 13 64.2606C13 64.8317 13.6677 65.8268 14.2585 66.1363C14.8335 66.4375 14.9055 66.4207 15.5956 65.8228C15.9967 65.4753 16.3984 65.1871 16.4882 65.1822C16.578 65.1773 17.2055 65.5564 17.8825 66.0245C19.8101 67.3572 21.1755 67.8206 23.5424 67.9453C25.2432 68.0349 25.8736 67.9735 27.0818 67.6008C30.407 66.5748 32.831 64.1195 33.8435 60.7519C34.2118 59.5268 34.2735 58.8711 34.1931 57.0391C34.1084 55.1099 34.0042 54.6168 33.4091 53.3285C32.9111 52.2504 32.7877 51.7785 32.9592 51.6085C33.1296 51.4397 33.4337 51.6586 34.0477 52.3917C34.8287 53.3241 34.9492 53.3916 35.4908 53.2004C35.8158 53.0856 36.2364 52.7255 36.4256 52.4003C36.7593 51.8263 36.748 51.7833 36.0424 50.9396C35.6425 50.4616 35.3139 49.9867 35.3121 49.8844C35.3104 49.7821 35.5735 49.4887 35.8968 49.2325C36.2201 48.9762 38.0574 47.4709 39.9798 45.8872C41.9021 44.3036 43.5199 43.0079 43.5749 43.0079C43.6298 43.0079 43.6748 45.4968 43.6748 48.5389V54.0699L42.3341 54.1346L40.9934 54.1993V55.2858V56.3724L42.2805 56.481C43.9395 56.6211 44.014 57.0763 42.4445 57.4832C39.1958 58.3254 36.1921 60.913 35.1035 63.8072C33.4008 68.3338 34.6967 73.0268 38.478 76.0275C39.5046 76.8422 41.7022 77.859 42.9776 78.1095C43.6613 78.2438 43.6748 78.2692 43.6748 79.4181ZM44.4876 73.2533C43.8371 73.4406 43.7698 73.5436 43.7071 74.4466C43.6694 74.9901 43.5708 75.5028 43.4881 75.5859C43.2543 75.8206 41.1805 75.0023 40.0914 74.2457C37.4029 72.3777 36.0766 68.7354 36.8695 65.3977C37.6401 62.1539 40.9696 60.5711 42.9978 62.4844C44.344 63.7543 44.3449 65.9579 42.9999 67.2598C42.399 67.8414 42.173 67.914 40.9689 67.9124C40.2237 67.9113 39.4415 67.826 39.2306 67.7228C38.8897 67.5559 38.8473 67.6685 38.8473 68.7403V69.9456L39.6941 70.2018C41.4664 70.738 43.2737 70.3597 44.4945 69.197C44.9159 68.7956 45.3026 68.4672 45.3538 68.4672C45.4049 68.4672 45.6882 68.757 45.9832 69.1111C46.9179 70.2328 49.288 70.7692 50.8618 70.2151C51.5229 69.9824 51.5516 69.9217 51.5516 68.7537C51.5516 67.6745 51.5077 67.555 51.1683 67.7086C50.3848 68.0632 48.7652 68.0681 48.0947 67.718C46.5708 66.9222 46.027 64.6232 47.0109 63.136C48.6623 60.6396 52.4794 61.5206 53.5532 64.646C53.711 65.1053 53.8381 66.3769 53.8358 67.4719C53.8306 69.8843 53.2523 71.3716 51.6447 73.1072C50.6091 74.2251 48.456 75.4857 47.3898 75.5983C46.8839 75.6517 46.8339 75.5725 46.7327 74.5572C46.6316 73.5425 46.5686 73.4426 45.9113 73.2533C45.4743 73.1275 44.9246 73.1275 44.4876 73.2533ZM27.3545 65.5447C29.6451 64.7049 31.6829 62.6932 32.1753 60.7858C32.5757 59.2351 32.2634 57.9743 31.2056 56.8709C30.3879 56.018 30.1815 55.9153 29.2858 55.9153C27.5621 55.9153 26.2757 57.0077 26.0133 58.6942C25.8334 59.8508 26.6057 61.3577 27.6561 61.8999L28.4878 62.3291L27.6063 63.0358C27.1214 63.4245 26.5954 63.7425 26.4373 63.7425C26.2792 63.7425 25.723 63.332 25.2012 62.8303C24.0261 61.7005 23.4781 60.324 23.6581 58.9544L23.7877 57.968L22.7278 57.816C21.1024 57.5828 19.4999 56.1899 18.8705 54.4631C18.6661 53.9023 18.7186 53.7799 19.4548 53.1013C19.8996 52.6913 20.3207 52.3516 20.3904 52.3465C20.4602 52.3413 20.629 52.726 20.7655 53.2012C21.0996 54.3645 22.4461 55.3562 23.6913 55.3562C25.3806 55.3562 26.8027 53.8647 26.8027 52.0929C26.8027 50.1511 25.2209 48.7574 23.0215 48.7612C19.0507 48.7681 15.6103 53.5949 16.3164 58.1684C16.5576 59.7304 17.0289 61.0589 17.3418 61.0589C17.4567 61.0589 17.8431 60.8023 18.2004 60.4887C18.8255 59.94 18.8751 59.932 19.5113 60.2752C19.875 60.4713 20.3359 60.989 20.5355 61.4256L20.8984 62.2195L20.0986 62.984C19.6587 63.4045 19.2988 63.787 19.2988 63.834C19.2988 64.0848 21.6374 65.4309 22.489 65.6702C23.9923 66.0928 26.0008 66.041 27.3545 65.5447ZM71.9071 64.1746C71.6925 64.4204 70.9131 64.9033 70.1752 65.2476C69.1437 65.7289 68.4332 65.8897 67.1016 65.9431C65.2079 66.019 64.1279 65.7497 62.5933 64.819C59.6669 63.0442 58.4218 59.9236 59.7232 57.6255C60.6692 55.955 62.2529 55.4797 63.9274 56.3637C65.0615 56.9626 65.5685 58.0165 65.4316 59.4909C65.3135 60.7632 64.7405 61.6149 63.6878 62.0832L63.0884 62.3499L63.9457 63.0629C64.4173 63.455 64.9595 63.7759 65.1508 63.7759C65.3421 63.7759 65.9594 63.297 66.5226 62.7117C67.7054 61.4824 68.1701 60.2105 67.9618 58.7726L67.8242 57.8232L68.6954 57.7873C70.1843 57.7258 71.7008 56.6804 72.4268 55.215C72.9973 54.0636 72.9539 53.8246 72.0316 53.0379C71.0556 52.2052 70.8902 52.1855 70.8902 52.9017C70.8902 53.2055 70.5931 53.8043 70.2299 54.2323C68.925 55.7705 67.0965 55.8168 65.6768 54.3477C64.5646 53.1966 64.4014 52.2448 65.0753 50.8388C66.0259 48.8554 68.209 48.2357 70.7625 49.2244C72.1948 49.779 73.7987 51.478 74.7171 53.4137C75.264 54.5664 75.3284 54.9377 75.3284 56.9424C75.3284 58.7851 75.2429 59.3745 74.8469 60.2624L74.3654 61.3419L73.5152 60.6348C72.5628 59.8427 72.1724 59.909 71.34 61.0041C70.709 61.8343 70.7786 62.4145 71.5939 63.1193C72.2782 63.711 72.2868 63.7399 71.9071 64.1746Z" fill="#081E2C" fill-opacity="0.64"/>
</svg>
