<svg width="90" height="90" viewBox="0 0 90 90" fill="none" xmlns="http://www.w3.org/2000/svg">
<path fill-rule="evenodd" clip-rule="evenodd" d="M54.9293 23.2357C57.26 20.4696 58.4294 17.4811 58.4294 14.2804V14.2803C58.4294 13.8558 58.4096 13.4279 58.3622 13C56.7386 13.0842 55.0122 13.5761 53.1871 14.4656C51.358 15.3686 49.8497 16.5005 48.6638 17.8619C46.2883 20.5506 44.9507 23.839 44.9507 26.9117C44.9507 27.3364 44.9779 27.7405 45.025 28.1245C48.7143 28.4243 52.1165 26.5241 54.9293 23.2357ZM67.3378 69.0619C68.6651 67.1696 69.8108 65.1114 70.7786 62.8754C71.1777 61.9273 71.5529 60.9397 71.9085 59.9086C70.269 59.2212 68.7955 58.2533 67.476 57.001C64.5645 54.3029 63.0831 50.9046 63.0396 46.821C62.9922 41.5783 65.3744 37.4915 70.19 34.5737C67.4997 30.7496 63.4544 28.627 58.0699 28.1924C56.0828 28.0237 53.6572 28.452 50.7832 29.4862C47.7441 30.6014 45.9513 31.1608 45.4224 31.1608C44.7148 31.1608 43.1011 30.6824 40.5878 29.7391C38.0673 28.7988 36.0392 28.3204 34.4925 28.3204C31.666 28.3674 29.0412 29.1022 26.6121 30.5442C24.1829 31.9861 22.242 33.9503 20.7831 36.4403C18.9268 39.5402 18 43.2395 18 47.5285C18 51.2728 18.6874 55.1404 20.0586 59.1343C21.339 62.832 22.9733 66.0753 24.9612 68.8723C26.814 71.4915 28.3606 73.3403 29.5971 74.4188C31.5344 76.2202 33.4753 77.0775 35.4225 76.9945C36.7028 76.9511 38.3775 76.5125 40.4562 75.6711C42.5318 74.8336 44.4723 74.4188 46.2816 74.4188C48.0068 74.4188 49.8936 74.8336 51.9466 75.6711C53.993 76.5125 55.751 76.9273 57.2087 76.9273C59.2392 76.8799 61.1355 76.0464 62.9053 74.4188C64.047 73.4272 65.5284 71.6416 67.3378 69.0619Z" fill="#081E2C" fill-opacity="0.64"/>
</svg>
