<svg width="90" height="90" viewBox="0 0 90 90" fill="none" xmlns="http://www.w3.org/2000/svg">
<path fill-rule="evenodd" clip-rule="evenodd" d="M86.8374 58.5159C85.5451 57.7587 84.8104 56.5237 84.0879 55.3092C83.803 54.8303 83.52 54.3546 83.2055 53.9127C83.0138 53.6388 82.7521 53.4082 82.4918 53.1788C82.2169 52.9366 81.9435 52.6956 81.7556 52.4064C80.4605 48.8871 79.3624 45.3679 79.0105 41.3559C78.8064 40.3296 78.4655 39.3353 77.9969 38.3997C76.5697 36.0988 74.7768 33.9701 72.9942 31.8536L72.9934 31.8526L72.9926 31.8516C72.7362 31.5472 72.4801 31.2431 72.2253 30.9387L71.6481 30.3475L64.511 24.4351C63.735 23.9054 62.9051 23.4405 62.0308 23.0684C61.906 23.0154 61.7804 22.9642 61.6539 22.915C61.6539 22.915 61.6539 22.915 61.6539 22.915C60.0151 22.3754 58.2374 22.4403 56.6424 23.098C56.0768 23.3989 55.5322 23.7477 54.9889 24.0957C54.0584 24.6917 53.1317 25.2852 52.1095 25.6319C51.3037 25.9959 50.4611 26.2595 49.6204 26.5226C48.0229 27.0224 46.4321 27.5201 45.1132 28.7007C44.8434 28.9319 44.5838 29.1933 44.3232 29.4557C43.4414 30.3434 42.547 31.2439 41.1997 31.0375C39.3059 30.9738 37.4588 31.6331 36.0334 32.8816C35.8206 33.074 35.6096 33.2723 35.3982 33.4709C34.2952 34.5074 33.1811 35.5543 31.7399 35.8378C30.9632 36.1644 30.1005 36.2403 29.2367 36.3163C28.4251 36.3877 27.6124 36.4592 26.8692 36.7387C25.031 37.1983 23.4687 38.4204 21.9236 39.6292L21.9235 39.6292C21.4334 40.0127 20.9449 40.3948 20.45 40.7507C20.2849 40.8462 20.1204 40.9422 19.9561 41.0382L19.9558 41.0384C18.0599 42.1454 16.189 43.2379 13.8055 43.1861C13.369 43.1509 12.9482 43.054 12.5532 42.9028C12.5051 42.8844 12.4573 42.8651 12.41 42.8451C11.2922 42.3724 10.3975 41.457 9.96195 40.2719C9.42941 38.4349 10.0246 36.4565 11.4823 35.2182C12.128 34.4481 12.9333 33.8101 13.7387 33.172L13.7387 33.172L13.7387 33.172L13.7387 33.172L13.7387 33.172C14.8471 32.2938 15.9556 31.4156 16.6486 30.1927C17.2821 28.9257 17.1695 27.3772 16.353 26.2229C15.7873 25.6423 15.1376 25.2594 14.4428 24.9847C14.4049 24.9697 14.3669 24.9551 14.3288 24.9407C13.5227 24.6376 12.6596 24.4717 11.7988 24.3063C11.3282 24.2158 10.8583 24.1255 10.3989 24.013C10.2662 23.9763 10.1365 23.9331 10.0093 23.8844C9.98954 23.8768 9.96984 23.8691 9.95019 23.8613C9.28818 23.5976 8.69375 23.1882 8.10373 22.7818L8.10372 22.7818L8.10371 22.7818C7.70033 22.5039 7.29899 22.2275 6.87953 22C6.45724 22.6757 6.26017 23.4781 6.33055 24.2804C6.63379 26.1958 7.92915 27.8042 9.7298 28.5107C9.76012 28.5226 9.79058 28.5342 9.82118 28.5456C9.82124 28.5457 9.8213 28.5457 9.82137 28.5457C9.82148 28.5457 9.82158 28.5458 9.82169 28.5458C9.84083 28.554 9.86001 28.5619 9.87923 28.5696C9.88901 28.5735 9.89879 28.5773 9.90859 28.5811C10.5015 28.8091 11.1361 28.8076 11.7683 28.8062H11.7683C12.2387 28.8052 12.7078 28.8041 13.1575 28.8976C13.1576 28.8976 13.1578 28.8977 13.1579 28.8977C13.1579 28.8977 13.158 28.8978 13.158 28.8978C13.4958 29.0385 13.7211 29.3201 13.7915 29.6579C13.7915 29.9676 13.6507 30.2492 13.4395 30.4744C13.1807 30.6901 12.92 30.9044 12.6588 31.119C11.2154 32.3054 9.76089 33.5009 8.56882 34.9791C7.06257 36.598 6.89364 39.4556 7.68196 41.4968C8.43284 43.2314 9.83887 44.5639 11.5525 45.2371C12.1148 45.458 12.7102 45.6078 13.3264 45.6776C14.7863 45.9169 16.1038 45.6171 17.4345 45.3143L17.4346 45.3143L17.4346 45.3143C17.6693 45.2609 17.9044 45.2073 18.1408 45.1567C18.1619 45.1623 18.1824 45.169 18.2025 45.1768C18.3475 45.2335 18.4636 45.3482 18.5214 45.4948C18.5853 46.0637 18.5869 46.6064 18.5884 47.1365V47.1365V47.1366V47.1366C18.5907 47.8918 18.5928 48.6216 18.7748 49.366C19.0563 50.4358 19.4223 51.4776 19.8587 52.4911C19.9371 52.8897 19.8339 53.3025 19.5772 53.6173C18.7325 54.2226 17.8175 54.7435 16.8462 55.1517L14.5094 55.2925L14.0589 55.5036C13.4985 56.1635 13.2863 56.835 13.0646 57.5368C12.941 57.9278 12.8145 58.3283 12.6231 58.7414C12.0467 59.6906 11.0803 60.2498 10.1462 60.7903L10.1461 60.7903L10.146 60.7904L10.146 60.7904C9.91653 60.9232 9.68904 61.0548 9.46976 61.1908C9.12525 61.7913 8.69885 62.3409 8.20282 62.8238C7.80866 63.1335 7.33003 63.3165 6.82325 63.3305C6.05779 64.2169 5.85601 65.4363 5.65574 66.6466L5.62672 66.8215C6.01024 66.8583 6.39849 66.9447 6.78804 67.0314C7.74238 67.2438 8.70453 67.4579 9.6241 66.9482C10.2918 66.6355 10.6449 66.0234 11.0002 65.4074C11.2367 64.9974 11.4742 64.5857 11.8061 64.2594C12.3243 63.6971 13.0499 63.9034 13.7188 64.0937C13.9039 64.1463 14.0847 64.1977 14.2555 64.2313C15.0403 64.2691 15.679 63.9005 16.3124 63.5349C16.6221 63.3562 16.9304 63.1782 17.2539 63.0488C17.5888 62.8301 17.8939 62.5317 18.2012 62.2311L18.2013 62.2311C18.527 61.9125 18.8554 61.5913 19.2247 61.3595C20.5995 60.7069 22.4811 61.0542 23.9237 61.3205L23.9828 61.3314C25.109 61.6129 26.2774 61.4721 27.3191 61.0076C27.5432 60.8684 27.764 60.7202 27.9847 60.572C28.679 60.106 29.3722 59.6407 30.1627 59.4591C31.0882 58.9823 31.5528 57.9328 31.9321 57.0759L31.9364 57.066C32.0483 56.7711 32.2207 56.5001 32.3928 56.2297C32.6971 55.7515 33 55.2754 32.9641 54.6729C32.8981 54.6185 32.8289 54.5438 32.7559 54.4651L32.7559 54.465C32.6159 54.314 32.4619 54.1478 32.2898 54.081C32.2263 54.0565 32.1604 54.0454 32.0918 54.0537C31.9044 54.3113 31.7365 54.5763 31.5678 54.8425C31.331 55.2162 31.0927 55.5924 30.7967 55.9541C28.6288 58.9103 26.9114 59.1918 22.5052 59.1918C19.2959 58.949 16.1585 60.2258 14.0308 62.6408C13.9261 62.6867 13.8102 62.6874 13.7082 62.6478C13.6499 62.6253 13.5962 62.5897 13.5516 62.542C13.5516 62.1197 13.6783 61.6833 13.9176 61.3173C15.9166 58.4596 19.0558 57.798 22.3639 57.7276C24.109 57.6733 25.8243 57.2612 27.4036 56.517C29.0347 55.6861 30.3134 54.2974 31.0073 52.6035C31.1629 51.8317 31.2807 51.0315 31.3984 50.232L31.3984 50.232L31.3984 50.232L31.3984 50.2319L31.3984 50.2319L31.3984 50.2318C31.5684 49.0775 31.7381 47.9246 32.0209 46.86C32.1757 46.663 32.4291 46.5785 32.6684 46.6066C32.7329 46.6138 32.7946 46.6292 32.8524 46.6518C33.0222 46.718 33.1585 46.847 33.232 47.0151C33.1855 47.2708 33.134 47.5329 33.0816 47.7994C32.7529 49.4702 32.3896 51.3173 33.0209 52.8712C33.3563 53.3151 33.7593 53.5993 34.205 53.7728C35.227 54.1706 36.4731 53.9868 37.6428 53.8144L37.6429 53.8144C38.1467 53.7401 38.6362 53.668 39.0876 53.6452C40.974 53.5326 42.8603 53.5608 44.7185 53.7438C44.9587 53.7368 45.1835 53.7462 45.397 53.7551L45.3971 53.7552H45.3972C46.0468 53.7823 46.5924 53.8052 47.1539 53.3496C47.365 52.9977 47.4354 52.6035 47.3791 52.2094C47.3609 52.0318 47.3014 51.8777 47.2464 51.7354C47.1315 51.4376 47.0362 51.1909 47.3791 50.8861C47.5457 50.8133 47.7311 50.8118 47.8947 50.8755C47.9679 50.9038 48.0367 50.9452 48.0975 50.9989C48.1862 51.234 48.2582 51.4746 48.3301 51.7151C48.4864 52.238 48.6425 52.7603 48.9703 53.2231C49.9932 54.4291 51.2535 55.4114 52.6726 56.1089C53.9396 56.9817 54.9813 58.2064 55.0657 59.7409C55.0798 60.5292 54.3619 61.0641 53.7566 61.4301C52.743 62.0073 51.5887 62.2888 50.4203 62.2325C50.4201 62.2324 50.42 62.2324 50.4199 62.2323C50.4198 62.2323 50.4198 62.2323 50.4198 62.2323C49.3759 61.7242 48.8351 60.8281 48.2884 59.922C48.0019 59.4473 47.7139 58.9699 47.3509 58.5441C47.1473 58.3136 46.9028 58.1566 46.6338 58.0529C46.1964 57.8843 45.6943 57.8565 45.1976 57.8827C44.353 57.9249 43.4943 58.0516 42.6637 58.2768C42.4709 58.4682 42.3819 58.7405 42.4244 59.0088C42.9453 59.9437 43.5041 60.8532 44.0769 61.7854L44.17 61.9369C44.2082 61.9598 44.247 61.9795 44.2866 61.9964C44.3139 62.0081 44.3414 62.0184 44.3693 62.0275C44.6254 62.1115 44.9046 62.0944 45.1819 62.0775C45.4667 62.0601 45.7495 62.0429 46.003 62.1352C46.0233 62.1427 46.0435 62.1508 46.0635 62.1597C46.1929 62.2172 46.3138 62.3067 46.4224 62.4437C46.5732 62.6761 46.7076 62.918 46.8414 63.159L46.8415 63.1591C47.1698 63.7503 47.4954 64.3365 48.0553 64.7664C48.317 65.0001 48.6144 65.1794 48.9309 65.3014C49.5679 65.5467 50.2825 65.5597 50.9406 65.3152C53.193 64.6817 55.3749 63.823 57.4583 62.7813H58.1622C58.2955 62.7678 58.4314 62.7575 58.568 62.7471L58.5681 62.7471C59.2824 62.693 60.0168 62.6374 60.5131 62.1056C61.1606 61.1906 61.7378 60.2193 62.2305 59.2198C62.7373 58.53 62.5121 57.4883 62.2868 56.7281C61.3527 55.4797 60.6298 54.0863 60.1471 52.6036C60.0844 52.5861 60.0225 52.5661 59.9611 52.5444C59.8591 52.5084 59.7584 52.4679 59.6576 52.4273M86.8374 58.5159H86.8376H86.8374ZM86.8376 58.5159C86.8377 58.516 86.8378 58.5161 86.8379 58.5161H86.8519H86.852L87.9354 59.0509C88.02 59.1582 88.02 59.3095 87.9354 59.4169L87.7524 59.5717C86.968 59.705 86.2508 59.6087 85.6001 59.3554C84.4645 58.9131 83.5316 57.9929 82.7978 56.9817C82.1246 55.6882 81.2535 54.2463 79.871 53.6304C79.7904 53.5945 79.708 53.5614 79.6239 53.5313C79.6118 53.527 79.5998 53.5227 79.5877 53.5185C79.4984 53.5152 79.4155 53.5649 79.3765 53.6452C79.477 53.8893 79.6543 54.1114 79.832 54.3339L79.8321 54.334C80.0029 54.5478 80.174 54.7621 80.2775 54.9966C80.8808 55.9465 81.3632 56.9679 81.7133 58.0373C82.0512 59.1494 83.29 59.98 84.2754 60.6134L84.2759 60.6136L85.6831 61.3455C85.7731 61.3989 85.8346 61.4897 85.8509 61.5931C85.8672 61.6965 85.8367 61.8018 85.7676 61.8804L85.5705 61.993C84.7236 62.0454 83.8843 61.9577 83.0832 61.7419C82.7987 61.6653 82.519 61.5725 82.2455 61.4641C81.2021 61.0505 80.2488 60.4097 79.4615 59.5719C79.2657 59.3234 79.0215 59.1273 78.7505 58.9878C78.6415 58.9317 78.5281 58.8847 78.4118 58.8472C78.2767 58.8036 78.1377 58.7729 77.9969 58.7553L77.9592 58.7884C76.916 59.7067 75.8686 60.6285 74.4777 60.712C72.9994 60.4031 71.4644 60.5103 70.0434 61.0217C69.8549 61.0882 69.6664 61.1572 69.4772 61.2264L69.4766 61.2266C68.4652 61.5967 67.4349 61.9737 66.2847 62.0212C66.0508 62.0364 65.8188 61.9984 65.6045 61.9158C65.2257 61.7696 64.9025 61.4839 64.7227 61.1063C64.7227 60.8575 64.6576 60.5875 64.5905 60.3091C64.4602 59.7685 64.3223 59.1961 64.6382 58.6851L65.5251 57.3618C65.5368 57.2094 65.4509 57.0766 65.3244 57.0283C65.2988 57.0184 65.2715 57.0121 65.243 57.0097C65.1027 56.9846 64.9392 57.0488 64.7798 57.1113C64.6076 57.1788 64.4402 57.2445 64.312 57.1937C64.2258 57.1594 64.1575 57.0722 64.1174 56.8973C64.1934 55.8655 64.9732 55.1438 65.7393 54.4348L65.7394 54.4347L65.7394 54.4347L65.7396 54.4345L65.7396 54.4345C65.9664 54.2246 66.1921 54.0157 66.3979 53.8003C66.5843 52.7356 67.0673 51.7451 67.7915 50.9426C67.7634 50.8159 67.6789 50.7033 67.5381 50.647C67.5379 50.6469 67.5378 50.6469 67.5376 50.6468C66.3974 50.9143 65.229 51.055 64.0605 51.0973C63.1034 51.6181 61.893 51.97 60.7528 51.6183C60.5737 51.4573 60.5325 51.1926 60.6544 50.9848C61.8444 49.3024 62.3202 47.2172 61.9776 45.1851C61.9071 45.0743 61.7934 44.9779 61.6623 44.9269C61.6099 44.9065 61.5548 44.8933 61.4985 44.8892C61.3014 44.9315 61.1184 45.0582 61.0199 45.2412L61.0113 45.3019C60.7478 47.175 60.5303 48.7211 59.5136 50.2949C58.9753 50.8527 58.2125 51.0023 57.4569 51.1505C57.1257 51.2155 56.7959 51.2801 56.487 51.3788C56.2055 51.4773 56.0084 51.7307 55.9802 52.0123C55.9596 52.4984 56.2049 52.9085 56.4481 53.3153C56.5359 53.4621 56.6235 53.6085 56.6982 53.7579L59.0209 57.9388C59.0631 58.8135 58.8054 59.6567 58.561 60.4566L58.5609 60.4568C58.4789 60.7252 58.3983 60.9887 58.3311 61.2469C58.3638 61.3041 58.4036 61.3376 58.447 61.3542C58.5534 61.3954 58.682 61.3353 58.7821 61.2753C59.5538 60.5417 60.1214 59.6199 60.4291 58.6006C60.4714 58.1361 60.3869 57.6574 60.1898 57.2351L57.8108 52.5474C57.9128 52.3526 58.1126 52.3106 58.3136 52.2684C58.4176 52.2465 58.522 52.2246 58.6132 52.1814C58.8578 52.1695 59.0797 52.2182 59.2928 52.2891C59.4163 52.3302 59.5368 52.3787 59.6571 52.4271M62.8188 37.4609C62.9252 37.4964 63.054 37.46 63.1311 37.3719L63.1593 37.3578V37.3297C63.3423 36.654 63.4408 35.9501 63.4408 35.2463C63.4549 34.3876 63.2859 33.5288 62.9762 32.7405C62.7229 32.2056 62.3428 31.741 61.8923 31.375L61.8501 31.3469C61.8499 31.3468 61.8497 31.3467 61.8496 31.3467C61.5539 31.2341 61.2302 31.2904 60.9768 31.4875L60.9486 31.5297C60.7564 31.9196 60.8057 32.3853 61.0753 32.7262L61.3146 33.0782L61.4272 33.2189L61.7088 33.6976C62.1593 34.8801 62.483 36.1048 62.6942 37.3436L62.7083 37.3858L62.7364 37.4139C62.7545 37.4297 62.7743 37.4423 62.7954 37.4517C62.803 37.4552 62.8109 37.4582 62.8188 37.4609ZM74.705 57.1647H74.6774C74.0721 57.3618 73.4386 57.4322 72.8051 57.3899H72.7629L72.7625 57.3897H72.7624L72.6362 57.3336L72.6357 57.3334L72.4954 57.2492L72.4949 57.249C72.3913 57.1703 72.3513 57.0332 72.3964 56.9111C72.7262 55.9698 73.5105 55.2598 74.4798 55.0248H74.6206L74.6211 55.025L74.8458 55.067L74.8463 55.0672C74.8627 55.0713 74.8789 55.0765 74.8947 55.0826M74.7056 57.1781C74.7054 57.1783 74.7052 57.1784 74.705 57.1786V57.1647M77.5647 49.9064C77.5438 49.9002 77.5233 49.8919 77.5037 49.8818C77.4836 49.8713 77.4643 49.8589 77.4462 49.8444C77.3513 49.7706 77.2986 49.6548 77.3055 49.5347L77.2914 49.2673L77.1928 48.3382C77.1403 47.966 77.0057 47.6102 76.7987 47.2964C76.5031 46.9721 76.2122 46.6436 75.9259 46.311C75.7707 46.1252 75.5748 45.9808 75.3558 45.8873C75.2954 45.8615 75.2332 45.8396 75.1697 45.8218C75.0952 45.8009 75.0187 45.7857 74.941 45.7763C74.6454 45.8889 74.3779 46.0579 74.1808 46.3112L73.8711 46.7054L73.5896 47.0855C73.5111 47.1777 73.3831 47.2087 73.272 47.1648C73.2651 47.1621 73.2582 47.1591 73.2514 47.1558C73.2514 47.1557 73.2513 47.1557 73.2512 47.1557L73.2095 47.1418L73.209 47.1416C73.1324 46.9639 73.094 46.772 73.0964 46.5785C73.0964 46.311 73.1668 46.0577 73.2653 45.8183L73.5187 45.3116L73.8002 44.7344L73.8284 44.6781C73.9551 44.5373 74.0396 44.3684 74.0818 44.1995L74.1663 44.0024L74.3211 43.5801C74.3901 43.3445 74.565 43.1545 74.794 43.0662C74.9658 43 75.1534 42.9966 75.3247 43.0532C75.3642 43.0662 75.4028 43.0824 75.4402 43.1018C75.457 43.1105 75.4737 43.1198 75.49 43.1298C75.856 43.341 76.1657 43.6507 76.3628 44.0307L76.5036 44.256L76.6725 44.5375L77.0244 44.988C78.0098 46.0719 78.4744 47.0996 78.4744 48.1554C78.4744 48.4369 78.4322 48.7044 78.3758 48.9578L78.2914 49.2111L78.2069 49.4786C78.1528 49.6854 77.9913 49.8468 77.7846 49.9009C77.7127 49.9266 77.6357 49.9278 77.5647 49.9064ZM52.1605 57.4084C52.5038 57.5556 52.5833 57.9465 52.6638 58.342C52.7185 58.6105 52.7736 58.8812 52.912 59.0789C52.9362 59.2146 53.0188 59.3535 53.1006 59.4913C53.2566 59.7537 53.4098 60.0117 53.1513 60.2332C52.5038 60.8103 51.6312 61.0778 50.7585 60.9794C50.3748 60.703 50.2129 60.2718 50.0468 59.8295C49.9083 59.4607 49.767 59.0843 49.4918 58.7835C49.424 58.5617 49.2241 58.437 49.0361 58.3196C48.7945 58.1689 48.5724 58.0303 48.6753 57.7136L48.9428 57.5306C49.9141 57.5306 50.8854 57.4743 51.8427 57.3476C51.9437 57.3491 52.031 57.3633 52.1067 57.3881C52.1253 57.3943 52.1432 57.4011 52.1605 57.4084ZM9.07938 59.4735C8.63284 60.4553 7.93322 61.3007 7.05226 61.923H7.05306C7.05296 61.923 7.05287 61.9231 7.05278 61.9232H7.06569C6.70711 62.0333 6.32154 62.0084 5.97517 61.8749C5.96835 61.8722 5.96155 61.8696 5.95476 61.8669C5.91159 61.8237 5.85825 61.779 5.80193 61.7317L5.80186 61.7317L5.80178 61.7316C5.61935 61.5787 5.40575 61.3996 5.40575 61.163C5.42768 61.0621 5.43048 60.9489 5.4333 60.8345C5.43955 60.5817 5.44594 60.323 5.65914 60.1776C6.37707 59.7412 7.06685 59.2485 7.72848 58.6995C7.92217 58.5977 8.14995 58.5845 8.3536 58.6623C8.36094 58.6652 8.36825 58.6681 8.37552 58.6711C8.6776 58.8709 8.92065 59.148 9.07938 59.4735ZM3.90985 62.0076C3.37518 62.2469 2.98121 62.6973 2.79827 63.2461C2.76171 63.4947 2.74794 63.7395 2.73452 63.978C2.69625 64.658 2.66085 65.2871 2.10848 65.8082C2.10027 65.8616 2.07889 65.9173 2.05725 65.9738C2.00471 66.1108 1.95071 66.2516 2.08033 66.3713C2.104 66.3806 2.1277 66.3899 2.15144 66.3991C2.80522 66.6514 3.48521 66.8255 4.19139 66.9342C4.31091 66.5374 4.42069 66.1259 4.5301 65.7159C4.74285 64.9186 4.95421 64.1264 5.2331 63.4571V63.1474C5.1716 63.0741 5.11049 62.9968 5.04851 62.9184C4.78427 62.5841 4.50419 62.2297 4.1099 62.0779C4.04648 62.0535 3.9801 62.0344 3.91036 62.0214V62.0213C3.91019 62.0213 3.91002 62.0213 3.90985 62.0212V62.0076Z" fill="#081E2C" fill-opacity="0.64"/>
</svg>
