<svg width="36" height="36" viewBox="0 0 36 36" fill="none" xmlns="http://www.w3.org/2000/svg">
<g clip-path="url(#clip0_160_4512)">
<path d="M22.4775 17.5411C22.3908 16.6946 22.0659 15.89 21.5404 15.2207C21.0149 14.5514 20.3105 14.0448 19.5087 13.7596C18.707 13.4745 17.8408 13.4226 17.0107 13.6098C16.1806 13.7971 15.4206 14.2158 14.8189 14.8175C14.2172 15.4192 13.7985 16.1792 13.6112 17.0093C13.424 17.8394 13.4759 18.7056 13.761 19.5073C14.0462 20.3091 14.5528 21.0135 15.2221 21.539C15.8914 22.0645 16.696 22.3894 17.5425 22.4761M17.469 31.448C16.9866 31.3569 16.5417 31.126 16.1894 30.7842C15.8371 30.4423 15.593 30.0044 15.4875 29.525C15.3916 29.1293 15.2037 28.7618 14.9389 28.4525C14.6742 28.1432 14.3402 27.9007 13.964 27.7449C13.5879 27.589 13.1803 27.5242 12.7743 27.5557C12.3684 27.5872 11.9756 27.714 11.628 27.926C9.3135 29.336 6.663 26.687 8.073 24.371C8.28465 24.0235 8.41133 23.631 8.44273 23.2253C8.47413 22.8197 8.40936 22.4123 8.25371 22.0364C8.09805 21.6605 7.85589 21.3266 7.54691 21.0619C7.23793 20.7972 6.87085 20.6091 6.4755 20.513C3.8415 19.874 3.8415 16.127 6.4755 15.488C6.8712 15.3921 7.23867 15.2042 7.548 14.9394C7.85733 14.6747 8.09978 14.3407 8.25562 13.9645C8.41146 13.5884 8.47628 13.1807 8.4448 12.7748C8.41333 12.3689 8.28645 11.9761 8.0745 11.6285C6.6645 9.31399 9.3135 6.66349 11.6295 8.07349C13.1295 8.98549 15.0735 8.17849 15.4875 6.47599C16.1265 3.84199 19.8735 3.84199 20.5125 6.47599C20.6084 6.87169 20.7963 7.23916 21.0611 7.54849C21.3258 7.85782 21.6598 8.10027 22.036 8.25611C22.4121 8.41194 22.8197 8.47676 23.2257 8.44529C23.6316 8.41382 24.0244 8.28694 24.372 8.07499C26.6865 6.66499 29.337 9.31399 27.927 11.63C27.7153 11.9775 27.5887 12.37 27.5573 12.7756C27.5259 13.1813 27.5906 13.5886 27.7463 13.9646C27.9019 14.3405 28.1441 14.6744 28.4531 14.9391C28.7621 15.2038 29.1292 15.3918 29.5245 15.488C30.6165 15.7535 31.2555 16.553 31.443 17.4425M30.3 30.3003L33 33.0003M22.5 27.0005C22.5 28.194 22.9741 29.3386 23.818 30.1825C24.6619 31.0264 25.8065 31.5005 27 31.5005C28.1935 31.5005 29.3381 31.0264 30.182 30.1825C31.0259 29.3386 31.5 28.194 31.5 27.0005C31.5 25.807 31.0259 24.6624 30.182 23.8185C29.3381 22.9746 28.1935 22.5005 27 22.5005C25.8065 22.5005 24.6619 22.9746 23.818 23.8185C22.9741 24.6624 22.5 25.807 22.5 27.0005Z" stroke="url(#paint0_linear_160_4512)" stroke-width="2" stroke-linecap="round" stroke-linejoin="round"/>
</g>
<defs>
<linearGradient id="paint0_linear_160_4512" x1="9.57879" y1="8.93869" x2="28.1224" y2="30.9185" gradientUnits="userSpaceOnUse">
<stop stop-color="#18ADC3"/>
<stop offset="1" stop-color="#012895"/>
</linearGradient>
<clipPath id="clip0_160_4512">
<rect width="36" height="36" fill="white"/>
</clipPath>
</defs>
</svg>
