<svg width="36" height="36" viewBox="0 0 36 36" fill="none" xmlns="http://www.w3.org/2000/svg">
<path fill-rule="evenodd" clip-rule="evenodd" d="M9.00001 6.5C8.64875 6.5 8.32324 6.6843 8.14252 6.9855L3.64252 14.4855C3.41703 14.8613 3.46253 15.3402 3.75477 15.6668L16.5048 29.9168C16.5148 29.928 16.5252 29.9391 16.5357 29.9499C16.7266 30.1447 16.9544 30.2994 17.2059 30.4051C17.4573 30.5107 17.7273 30.5652 18 30.5652C18.2727 30.5652 18.5427 30.5107 18.7942 30.4051C19.0456 30.2994 19.2734 30.1447 19.4643 29.9499C19.4749 29.9391 19.4852 29.928 19.4953 29.9168L32.2453 15.6668C32.5375 15.3402 32.583 14.8613 32.3575 14.4855L27.8575 6.9855C27.6768 6.6843 27.3513 6.5 27 6.5H9.00001ZM5.73671 14.8825L9.5662 8.5H26.4338L30.2633 14.8825L18.0296 28.5555C18.0264 28.5578 18.023 28.5597 18.0194 28.5613C18.0133 28.5638 18.0067 28.5652 18 28.5652C17.9934 28.5652 17.9868 28.5638 17.9806 28.5613C17.977 28.5597 17.9736 28.5578 17.9704 28.5555L5.73671 14.8825ZM13.7575 13.7144C14.0417 13.2409 13.8881 12.6266 13.4145 12.3425C12.9409 12.0583 12.3267 12.2119 12.0425 12.6855L11.1425 14.1855C10.9155 14.5638 10.9633 15.0462 11.2601 15.3726L14.2601 18.6726C14.6316 19.0813 15.264 19.1114 15.6727 18.7399C16.0813 18.3684 16.1115 17.7359 15.74 17.3273L13.2399 14.5772L13.7575 13.7144Z" fill="url(#paint0_linear_160_4519)"/>
<defs>
<linearGradient id="paint0_linear_160_4519" x1="8.6679" y1="10.2476" x2="23.5942" y2="31.5676" gradientUnits="userSpaceOnUse">
<stop stop-color="#18ADC3"/>
<stop offset="1" stop-color="#012895"/>
</linearGradient>
</defs>
</svg>
