<svg width="36" height="36" viewBox="0 0 36 36" fill="none" xmlns="http://www.w3.org/2000/svg">
<path fill-rule="evenodd" clip-rule="evenodd" d="M19.7464 3.90518C20.3914 3.638 21.0826 3.50049 21.7808 3.50049C22.4789 3.50049 23.1701 3.638 23.8151 3.90518C24.46 4.17235 25.046 4.56394 25.5396 5.05759L30.9426 10.4605C31.4362 10.9541 31.8278 11.5401 32.095 12.1851C32.3622 12.8301 32.4997 13.5213 32.4997 14.2194C32.4997 14.9176 32.3622 15.6088 32.095 16.2538C31.8278 16.8987 31.4363 17.4847 30.9426 17.9783M26.9781 21.9428L30.9426 17.9783L26.9781 21.9428ZM26.9781 21.9428C26.4845 22.4365 25.8985 22.828 25.2536 23.0952C24.6086 23.3624 23.9174 23.4999 23.2192 23.4999C22.5211 23.4999 21.8299 23.3624 21.1849 23.0952C20.6515 22.8743 20.1585 22.5682 19.7247 22.1897L10.5861 31.3283C9.92155 31.9928 9.0442 32.4021 8.10805 32.4844C8.09411 32.4856 8.08014 32.4865 8.06616 32.4872L7.80366 32.4992C7.78845 32.4999 7.77323 32.5002 7.758 32.5002H6C5.38766 32.5001 4.79652 32.2753 4.33894 31.8684C3.88135 31.4615 3.58901 30.9008 3.51737 30.2927C3.51512 30.2737 3.51343 30.2546 3.51228 30.2354L3.50178 30.0599C3.5006 30.04 3.5 30.0201 3.5 30.0002V28.2422C3.50023 27.3031 3.83087 26.3938 4.434 25.674C4.44338 25.6628 4.45301 25.6518 4.46287 25.641L4.64137 25.446C4.65131 25.4351 4.66149 25.4245 4.67189 25.4141L5.29289 24.7931C5.48043 24.6056 5.73478 24.5002 6 24.5002H8V22.5002C8 21.9479 8.44772 21.5002 9 21.5002H11V19.5002C11 19.235 11.1054 18.9806 11.2929 18.7931L13.8105 16.2755C13.432 15.8417 13.1259 15.3487 12.905 14.8153C12.6378 14.1703 12.5003 13.4791 12.5003 12.7809C12.5003 12.0828 12.6378 11.3916 12.905 10.7466C13.1722 10.1017 13.5637 9.51568 14.0574 9.02209M18.0219 5.05759L14.0574 9.02209L18.0219 5.05759ZM19.7464 3.90518C19.1015 4.17235 18.5155 4.56394 18.0219 5.05759L19.7464 3.90518Z" fill="url(#paint0_linear_160_4551)"/>
<path fill-rule="evenodd" clip-rule="evenodd" d="M21.7808 3.50049C21.0826 3.50049 20.3914 3.638 19.7464 3.90518C19.1015 4.17235 18.5155 4.56394 18.0219 5.05759L14.0574 9.02209C13.5637 9.51568 13.1722 10.1017 12.905 10.7466C12.6378 11.3916 12.5003 12.0828 12.5003 12.7809C12.5003 13.4791 12.6378 14.1703 12.905 14.8153C13.1259 15.3487 13.432 15.8417 13.8105 16.2755L11.2929 18.7931C11.1054 18.9806 11 19.235 11 19.5002V21.5002H9C8.44772 21.5002 8 21.9479 8 22.5002V24.5002H6C5.73478 24.5002 5.48043 24.6056 5.29289 24.7931L4.67189 25.4141C4.66149 25.4245 4.65131 25.4351 4.64137 25.446L4.46287 25.641C4.45301 25.6518 4.44338 25.6628 4.434 25.674C3.83087 26.3938 3.50023 27.3031 3.5 28.2422V30.0002C3.5 30.0201 3.5006 30.04 3.50178 30.0599L3.51228 30.2354C3.51343 30.2546 3.51512 30.2737 3.51737 30.2927C3.58901 30.9008 3.88135 31.4615 4.33894 31.8684C4.79652 32.2753 5.38766 32.5001 6 32.5002H7.758C7.77323 32.5002 7.78845 32.4999 7.80366 32.4992L8.06616 32.4872C8.08014 32.4865 8.09411 32.4856 8.10805 32.4844C9.0442 32.4021 9.92155 31.9928 10.5861 31.3283L19.7247 22.1897C20.1585 22.5682 20.6515 22.8743 21.1849 23.0952C21.8299 23.3624 22.5211 23.4999 23.2192 23.4999C23.9174 23.4999 24.6086 23.3624 25.2536 23.0952C25.8985 22.828 26.4845 22.4365 26.9781 21.9428L30.9426 17.9783C31.4363 17.4847 31.8278 16.8987 32.095 16.2538C32.3622 15.6088 32.4997 14.9176 32.4997 14.2194C32.4997 13.5213 32.3622 12.8301 32.095 12.1851C31.8278 11.5401 31.4362 10.9541 30.9426 10.4605L25.5396 5.05759C25.046 4.56394 24.46 4.17235 23.8151 3.90518C23.1701 3.638 22.4789 3.50049 21.7808 3.50049Z" fill="url(#paint1_linear_160_4551)"/>
<path fill-rule="evenodd" clip-rule="evenodd" d="M20.5118 5.75291C20.9141 5.58626 21.3453 5.50049 21.7808 5.50049C22.2162 5.50049 22.6474 5.58626 23.0497 5.75291C23.4519 5.91956 23.8175 6.16388 24.1254 6.47181L29.5284 11.8749C29.8364 12.1827 30.0806 12.5483 30.2473 12.9505C30.4139 13.3528 30.4997 13.784 30.4997 14.2194C30.4997 14.6549 30.4139 15.0861 30.2473 15.4884C30.0806 15.8906 29.8363 16.2562 29.5284 16.5641L25.5638 20.5286C25.256 20.8366 24.8904 21.0808 24.4882 21.2475C24.0859 21.4141 23.6547 21.4999 23.2192 21.4999C22.7838 21.4999 22.3526 21.4141 21.9503 21.2475C21.5481 21.0808 21.1825 20.8365 20.8746 20.5286L20.4231 20.0771C20.0326 19.6866 19.3994 19.6866 19.0089 20.0771L9.17189 29.9141C8.84408 30.2418 8.41274 30.4454 7.95176 30.4903L7.73516 30.5002H6C5.87758 30.5001 5.75943 30.4552 5.66795 30.3738C5.58168 30.2971 5.52479 30.1931 5.50654 30.0796L5.5 29.9703V28.2422C5.50017 27.7793 5.66089 27.331 5.95442 26.9736L6.10171 26.8127L6.41421 26.5002H9C9.55228 26.5002 10 26.0525 10 25.5002V23.5002H12C12.5523 23.5002 13 23.0525 13 22.5002V19.9144L15.9231 16.9913C16.3136 16.6008 16.3136 15.9676 15.9231 15.5771L15.4716 15.1255C15.1636 14.8177 14.9194 14.4521 14.7527 14.0499C14.5861 13.6476 14.5003 13.2164 14.5003 12.7809C14.5003 12.3455 14.5861 11.9143 14.7527 11.512C14.9194 11.1098 15.1637 10.7442 15.4716 10.4363L19.4362 6.47175C19.744 6.16383 20.1096 5.91956 20.5118 5.75291ZM22.5 12.5C21.9477 12.5 21.5 12.9477 21.5 13.5C21.5 14.0523 21.9477 14.5 22.5 14.5H22.515C23.0673 14.5 23.515 14.0523 23.515 13.5C23.515 12.9477 23.0673 12.5 22.515 12.5H22.5Z" fill="white"/>
<defs>
<linearGradient id="paint0_linear_160_4551" x1="8.66784" y1="8.01654" x2="27.5368" y2="30.3818" gradientUnits="userSpaceOnUse">
<stop stop-color="#18ADC3"/>
<stop offset="1" stop-color="#012895"/>
</linearGradient>
<linearGradient id="paint1_linear_160_4551" x1="8.66784" y1="8.01654" x2="27.5368" y2="30.3818" gradientUnits="userSpaceOnUse">
<stop stop-color="#18ADC3"/>
<stop offset="1" stop-color="#012895"/>
</linearGradient>
</defs>
</svg>
