<svg width="165" height="48" viewBox="0 0 165 48" fill="none" xmlns="http://www.w3.org/2000/svg">
<g clip-path="url(#clip0_160_4467)">
<path d="M24.0487 43.8214C34.9957 43.8214 43.8701 34.947 43.8701 24C43.8701 13.053 34.9957 4.17871 24.0487 4.17871C13.1017 4.17871 4.22742 13.053 4.22742 24C4.22742 34.947 13.1017 43.8214 24.0487 43.8214Z" fill="url(#paint0_linear_160_4467)"/>
<path d="M24.0487 47.9514C10.8426 47.9514 0.0974121 37.2062 0.0974121 24.0001C0.0974121 10.794 10.8426 0.0488281 24.0487 0.0488281C37.2548 0.0488281 48 10.794 48 24.0001C48 37.2062 37.2548 47.9514 24.0487 47.9514ZM24.0487 2.29045C12.073 2.29045 2.33904 12.0245 2.33904 24.0001C2.33904 35.9757 12.0852 45.7097 24.0487 45.7097C36.0121 45.7097 45.7583 35.9636 45.7583 24.0001C45.7583 12.0366 36.0121 2.29045 24.0487 2.29045Z" fill="url(#paint1_linear_160_4467)"/>
<path d="M66.2572 15.8681V18.0976C65.7354 17.3788 65.0315 16.794 64.1699 16.3189C63.2961 15.8438 62.2767 15.6123 61.1238 15.6123C59.7888 15.6123 58.5874 15.9412 57.5073 16.5991C56.4272 17.257 55.5777 18.195 54.9466 19.4255C54.3155 20.6438 54 22.0448 54 23.6285C54 25.2245 54.3155 26.6377 54.9466 27.8803C55.5777 29.1108 56.4272 30.0732 57.5073 30.7433C58.5874 31.4255 59.7767 31.7666 61.0873 31.7666C62.2524 31.7666 63.2718 31.523 64.1699 31.0478C64.4975 30.8773 64.8009 30.6824 65.0679 30.4752V27.0519C64.8131 27.3321 64.5097 27.5636 64.182 27.7463C63.5388 28.1118 62.8592 28.2945 62.131 28.2945C61.415 28.2945 60.7475 28.1118 60.1165 27.7341C59.4854 27.3565 58.9878 26.8204 58.5995 26.1138C58.2111 25.4072 58.0291 24.5788 58.0291 23.6407C58.0291 22.7027 58.2233 21.8864 58.5995 21.2042C58.9878 20.5219 59.4854 19.9981 60.1043 19.6326C60.7233 19.2793 61.3907 19.0966 62.131 19.0966C62.8592 19.0966 63.5509 19.2793 64.182 19.6448C64.8131 20.0103 65.3228 20.5463 65.699 21.2285C66.0752 21.9108 66.2572 22.7392 66.2572 23.7016V31.523H70.2257V15.8681H66.2572Z" fill="white"/>
<path d="M126.136 15.8681V18.0976C125.614 17.3788 124.91 16.794 124.036 16.3189C123.162 15.8438 122.143 15.6123 120.99 15.6123C119.655 15.6123 118.454 15.9412 117.374 16.5991C116.294 17.257 115.444 18.195 114.813 19.4255C114.182 20.6438 113.866 22.0448 113.866 23.6285C113.866 25.2245 114.182 26.6377 114.813 27.8803C115.444 29.1108 116.294 30.0732 117.374 30.7433C118.454 31.4255 119.643 31.7666 120.954 31.7666C122.119 31.7666 123.138 31.523 124.036 31.0478C124.364 30.8773 124.667 30.6824 124.934 30.4752V27.0519C124.679 27.3321 124.376 27.5636 124.048 27.7463C123.417 28.1118 122.726 28.2945 121.997 28.2945C121.281 28.2945 120.614 28.1118 119.983 27.7341C119.352 27.3565 118.854 26.8204 118.466 26.1138C118.077 25.4072 117.883 24.5788 117.883 23.6407C117.883 22.7027 118.077 21.8864 118.466 21.2042C118.854 20.5219 119.352 19.9981 119.971 19.6326C120.59 19.2793 121.257 19.0966 121.997 19.0966C122.738 19.0966 123.417 19.2793 124.048 19.6448C124.692 20.0103 125.189 20.5463 125.565 21.2285C125.942 21.9108 126.124 22.7392 126.124 23.7016V31.523H130.092V15.8681H126.136Z" fill="white"/>
<path d="M148.235 15.8682H143.114L137.883 22.4956V15.8682H133.951V31.4986H137.883V24.8347L143.174 31.4986H148.284L141.366 23.7139L148.235 15.8682Z" fill="white"/>
<path d="M84.3639 21.7037H77.398V15.8682H73.4659V31.4986H77.398V25.6631H84.3639V31.4986H88.3081V15.8682H84.3639V21.7037Z" fill="white"/>
<path d="M157.034 28.3676C155.905 28.3676 155.019 27.9534 154.364 27.1372C153.708 26.3209 153.381 25.1636 153.381 23.6773C153.381 22.1666 153.708 21.0092 154.364 20.193C155.019 19.3767 155.905 18.9625 157.034 18.9625C157.822 18.9625 158.478 19.1575 159.012 19.5351C159.546 19.925 159.922 20.4488 160.153 21.1311H164.4C163.963 19.3767 163.126 18.0245 161.852 17.0498C160.589 16.0752 158.988 15.6001 157.058 15.6001C155.553 15.6001 154.23 15.929 153.065 16.5991C151.9 17.2691 150.99 18.2072 150.335 19.4255C149.679 20.6438 149.352 22.057 149.352 23.6773C149.352 25.2976 149.679 26.7108 150.335 27.929C150.99 29.1473 151.9 30.0854 153.065 30.7554C154.23 31.4255 155.553 31.7544 157.058 31.7544C158.975 31.7544 160.565 31.2549 161.839 30.2559C163.114 29.257 163.963 27.9168 164.4 26.2234H160.153C159.667 27.6488 158.623 28.3676 157.034 28.3676Z" fill="white"/>
<path d="M106.451 15.9167L101.184 24.8954L96.2328 15.9167H91.5483V31.4497H95.6017V22.1178L100.116 29.9513H102.022L106.645 22.1543V31.4497H110.711L110.65 15.9167H106.451Z" fill="white"/>
<path d="M19.1878 27.3137C19.1878 28.2396 19.1878 29.1411 19.1878 30.0426C19.1878 30.4934 19.1756 30.9563 19.1878 31.4071C19.1878 31.5898 19.1269 31.6751 18.9685 31.7482C17.6893 32.3208 16.3614 32.4913 14.9725 32.4061C13.7055 32.333 12.5238 31.9919 11.4274 31.3583C10.0629 30.5665 8.99082 29.47 8.19894 28.1056C7.54107 26.9482 7.2365 25.6934 7.16341 24.3655C7.00503 21.0517 8.74717 18.201 11.4761 16.6294C12.9502 15.7766 14.5583 15.5086 16.2517 15.6182C17.8477 15.7157 19.2852 16.2274 20.5522 17.1898C21.9533 18.2497 23.001 19.5776 23.5736 21.2589C23.8903 22.1847 24 23.135 24 24.1096C24 26.7411 24.0243 29.3726 24.0243 32.004C24.0243 32.4426 24.0243 32.4426 23.5857 32.4426C22.6355 32.4426 21.6852 32.4426 20.7472 32.4426C20.4182 32.4426 20.4182 32.4426 20.4182 32.1015C20.4182 29.4457 20.406 26.7898 20.4182 24.134C20.4304 22.2578 19.6142 20.8568 18.067 19.8578C17.2873 19.3583 16.4223 19.1634 15.5086 19.1756C13.7786 19.2 12.4507 19.9919 11.5126 21.405C10.7695 22.5259 10.5746 23.7807 10.8791 25.0964C11.2203 26.5827 12.1096 27.6304 13.4375 28.337C14.2294 28.7634 15.0944 28.8731 15.9959 28.8122C17.1776 28.7269 18.1766 28.2517 19.005 27.4111C19.0294 27.3868 19.0659 27.3624 19.0903 27.338C19.1147 27.3259 19.1269 27.3259 19.1878 27.3137Z" fill="white"/>
<path d="M28.5198 15.6183C28.5441 15.594 28.5563 15.5818 28.5807 15.5818C30.0061 15.6062 31.4558 15.5331 32.869 15.6793C34.6233 15.862 36.134 16.6782 37.401 17.9209C38.2538 18.7493 38.936 19.7117 39.3746 20.8204C39.6914 21.6122 39.9228 22.4285 39.9228 23.2691C39.9472 26.2539 39.935 29.2386 39.9472 32.2234C39.9472 32.2843 39.935 32.3331 39.935 32.4183C39.8375 32.4305 39.7401 32.4427 39.6548 32.4427C38.668 32.4427 37.6812 32.4305 36.6944 32.4549C36.4386 32.4549 36.3776 32.3818 36.3776 32.1381C36.3898 29.3483 36.3898 26.5584 36.3776 23.7686C36.3655 22.2214 35.6345 21.0275 34.4284 20.1016C33.7827 19.6021 33.0518 19.2975 32.2233 19.2244C32.1137 19.2122 31.9797 19.1513 31.9188 19.0661C31.066 17.7016 29.9573 16.593 28.6051 15.728C28.5685 15.6671 28.5441 15.6427 28.5198 15.6183Z" fill="white"/>
<path d="M28.4344 32.4061C28.4223 32.2478 28.4101 32.1259 28.4101 31.9919C28.4101 29.3483 28.4101 26.7046 28.4101 24.061C28.4101 22.0386 27.472 20.5645 25.7055 19.6264C25.2791 19.4071 24.7796 19.3219 24.3045 19.2122C24.1096 19.1635 23.9755 19.1026 23.8537 18.9198C23.0375 17.6528 22.0141 16.5807 20.7349 15.7767C20.6618 15.728 20.6131 15.6792 20.5278 15.6061C20.5766 15.5939 20.6009 15.5696 20.6253 15.5696C22.0141 15.5939 23.4151 15.5452 24.804 15.6549C26.205 15.7645 27.472 16.3371 28.5806 17.1899C29.6892 18.0305 30.5664 19.066 31.1756 20.3208C31.7238 21.466 31.9552 22.6843 31.9552 23.9513C31.9552 26.6559 31.9552 29.3604 31.9552 32.0528C31.9552 32.4061 31.9552 32.4061 31.6141 32.4061C30.6517 32.4061 29.6771 32.4061 28.7146 32.4061C28.6415 32.4183 28.5563 32.4183 28.4344 32.4061Z" fill="white"/>
</g>
<defs>
<linearGradient id="paint0_linear_160_4467" x1="11.2919" y1="8.88432" x2="37.0857" y2="39.4576" gradientUnits="userSpaceOnUse">
<stop stop-color="#18ADC3"/>
<stop offset="1" stop-color="#012895"/>
</linearGradient>
<linearGradient id="paint1_linear_160_4467" x1="8.60549" y1="5.70061" x2="39.483" y2="42.2995" gradientUnits="userSpaceOnUse">
<stop stop-color="#18ADC3"/>
<stop offset="1" stop-color="#012895"/>
</linearGradient>
<clipPath id="clip0_160_4467">
<rect width="164.4" height="48" fill="white"/>
</clipPath>
</defs>
</svg>
