<svg width="12" height="20" viewBox="0 0 12 20" fill="none" xmlns="http://www.w3.org/2000/svg">
<path fill-rule="evenodd" clip-rule="evenodd" d="M0.726725 5.18271C0.726725 2.32042 3.04707 0 5.90944 0C8.7718 0 11.0922 2.32042 11.0922 5.18271C11.0922 8.04508 8.7718 10.3656 5.90944 10.3656C3.04707 10.3656 0.726725 8.04508 0.726725 5.18271ZM3.76702 5.18279C3.76702 6.36599 4.72624 7.32528 5.90944 7.32528C7.09264 7.32528 8.05186 6.36599 8.05186 5.18279C8.05186 3.99958 7.09264 3.04037 5.90944 3.04037C4.72624 3.04037 3.76702 3.99958 3.76702 5.18279ZM11.1238 13.0315C11.058 13.0843 9.81466 14.0669 7.73981 14.4895L10.8717 17.5935C11.4225 18.1434 11.4231 19.0357 10.8733 19.5864C10.3234 20.1371 9.43129 20.138 8.88037 19.588L5.83978 16.6271L3.07813 19.5689C2.80163 19.8557 2.43279 20 2.06358 20C1.71143 20 1.35899 19.8689 1.08553 19.6053C0.525266 19.065 0.509023 18.1729 1.04926 17.6127L4.02199 14.5059C1.88899 14.0932 0.594316 13.085 0.527639 13.0315C-0.0795004 12.5446 -0.177032 11.6577 0.309881 11.0505C0.79672 10.4434 1.68355 10.3459 2.29083 10.8327C2.30367 10.8431 3.65783 11.8604 5.8397 11.8618C8.02165 11.8604 9.34777 10.8431 9.3606 10.8327C9.96789 10.3459 10.8547 10.4434 11.3416 11.0505C11.8285 11.6577 11.7309 12.5446 11.1238 13.0315Z" fill="white"/>
</svg>
