<svg width="120" height="31" viewBox="0 0 120 31" fill="none" xmlns="http://www.w3.org/2000/svg">
<g clip-path="url(#clip0_178_1816)">
<path fill-rule="evenodd" clip-rule="evenodd" d="M54.0781 25.0649L59.9943 12.8953L65.9103 25.0649H54.0781Z" fill="#D42E12"/>
<path fill-rule="evenodd" clip-rule="evenodd" d="M116.383 21.3532C116.383 24.9926 115.611 27.518 114.06 28.9299C112.674 30.2273 110.254 30.9207 106.927 30.9207C105.732 30.9207 91.0645 30.9592 91.0645 30.9592C88.0436 30.9269 85.9939 30.5206 84.7178 29.5337C83.192 28.363 82.4286 26.1601 82.4286 22.9273V21.0799H90.7442V22.1155C90.7442 23.305 91.6892 24.2693 92.8548 24.2693H106.39C107.556 24.2693 108.501 23.305 108.501 22.1155V20.7344C108.501 19.5448 107.556 18.5808 106.39 18.5808C106.39 18.5808 89.7584 18.5882 89.3275 18.5808C86.6526 18.5345 84.8274 17.7991 83.7202 16.2314C83.5559 16.0031 83.4067 15.751 83.2698 15.4796H83.2696C82.4951 14.0467 82.1055 12.0916 82.1055 9.60596C82.1055 5.96662 82.8781 3.44121 84.4291 2.02931C85.8147 0.731919 88.2344 0.0384653 91.562 0.0384653C92.7564 0.0384653 107.424 0 107.424 0C110.445 0.0322941 112.495 0.438576 113.771 1.42543C115.297 2.59617 116.06 4.79906 116.06 8.03188V9.87923H107.745V8.84355C107.745 7.65418 106.8 6.68991 105.634 6.68991H92.0988C90.9331 6.68991 89.9879 7.65418 89.9879 8.84355V10.2248C89.9881 11.4144 90.9331 12.3786 92.0989 12.3786C92.0989 12.3786 108.731 12.371 109.161 12.3784C111.836 12.4247 113.662 13.16 114.769 14.728C114.933 14.9562 115.082 15.2084 115.219 15.4796C115.994 16.9125 116.383 18.8676 116.383 21.3532Z" fill="#003896"/>
<path fill-rule="evenodd" clip-rule="evenodd" d="M65.5216 0.0991211H59.9941H54.4665L39.5 30.9206H48.2941L59.9941 6.85332L71.6941 30.9206H80.4882L65.5216 0.0991211Z" fill="#003896"/>
<path fill-rule="evenodd" clip-rule="evenodd" d="M8.22058 0.0993652H0.347656V30.9208H8.22058V19.1832H12.5423L24.9765 30.9208H37.37L19.7414 15.3479L35.6219 0.0993652H23.9791L12.5423 11.701H8.22058V0.0993652Z" fill="#003896"/>
<path fill-rule="evenodd" clip-rule="evenodd" d="M119.413 1.77817C119.413 2.56869 118.787 3.21355 118.007 3.21355C117.236 3.21355 116.604 2.56869 116.604 1.77817C116.604 0.984902 117.236 0.344712 118.007 0.344712C118.787 0.344712 119.413 0.984902 119.413 1.77817ZM116.365 1.77817C116.365 2.70607 117.103 3.45429 118.007 3.45429C118.918 3.45429 119.654 2.70607 119.654 1.77817C119.654 0.849255 118.918 0.0991211 118.007 0.0991211C117.103 0.0991211 116.365 0.849255 116.365 1.77817ZM118.272 1.62048C118.213 1.66745 118.149 1.69112 118.06 1.69112H117.682V1.15254H118.06C118.149 1.15254 118.213 1.17537 118.272 1.22396C118.322 1.26986 118.347 1.33942 118.347 1.42372C118.347 1.50808 118.322 1.57297 118.272 1.62048ZM118.272 1.87709C118.375 1.8469 118.458 1.79279 118.514 1.71137C118.575 1.62982 118.605 1.53258 118.605 1.4191C118.605 1.26626 118.555 1.14158 118.458 1.05171C118.363 0.962074 118.234 0.917078 118.08 0.917078H117.426V2.63741H117.682V1.9128H118.001L118.359 2.63741H118.658L118.272 1.87709Z" fill="#003896"/>
</g>
<defs>
<clipPath id="clip0_178_1816">
<rect width="119.306" height="30.9592" fill="white" transform="translate(0.347656)"/>
</clipPath>
</defs>
</svg>
