<svg width="26" height="31" viewBox="0 0 26 31" fill="none" xmlns="http://www.w3.org/2000/svg">
<path fill-rule="evenodd" clip-rule="evenodd" d="M5.05025 2.55025C6.36301 1.2375 8.14348 0.5 10 0.5C11.8565 0.5 13.637 1.2375 14.9497 2.55025C16.2625 3.86301 17 5.64348 17 7.5C17 9.35652 16.2625 11.137 14.9497 12.4497C13.637 13.7625 11.8565 14.5 10 14.5C8.14348 14.5 6.36301 13.7625 5.05025 12.4497C3.7375 11.137 3 9.35652 3 7.5C3 5.64348 3.7375 3.86301 5.05025 2.55025ZM10 2.5C8.67392 2.5 7.40215 3.02678 6.46447 3.96447C5.52678 4.90215 5 6.17392 5 7.5C5 8.82608 5.52678 10.0979 6.46447 11.0355C7.40215 11.9732 8.67392 12.5 10 12.5C11.3261 12.5 12.5979 11.9732 13.5355 11.0355C14.4732 10.0979 15 8.82608 15 7.5C15 6.17392 14.4732 4.90215 13.5355 3.96447C12.5979 3.02678 11.3261 2.5 10 2.5ZM7 20.5C5.67392 20.5 4.40215 21.0268 3.46447 21.9645C2.52678 22.9021 2 24.1739 2 25.5V28.5C2 29.0523 1.55228 29.5 1 29.5C0.447715 29.5 0 29.0523 0 28.5V25.5C0 23.6435 0.737498 21.863 2.05025 20.5503C3.36301 19.2375 5.14348 18.5 7 18.5H7.75C8.30228 18.5 8.75 18.9477 8.75 19.5C8.75 20.0523 8.30228 20.5 7.75 20.5H7ZM16.3262 18.5005C15.1893 18.4983 14.0965 18.94 13.2803 19.7315L13.2803 19.7316C12.8762 20.1235 12.5547 20.5924 12.3347 21.1106C12.1148 21.6288 12.0009 22.1859 11.9998 22.7488C11.9987 23.3118 12.1104 23.8693 12.3283 24.3883C12.5461 24.907 12.8654 25.3768 13.2676 25.7701L13.2685 25.7711L18.2992 30.7133C18.6879 31.0952 19.3109 31.0955 19.7 30.714L24.7214 25.7916L24.7233 25.7897C25.1264 25.398 25.4471 24.9297 25.6665 24.4122C25.8863 23.8939 26 23.3368 26.0009 22.7739C26.0018 22.2109 25.89 21.6535 25.6719 21.1345C25.4538 20.6155 25.134 20.1454 24.7312 19.752C23.9181 18.9571 22.8267 18.5109 21.6895 18.5088C20.7129 18.5069 19.7689 18.8325 19.0048 19.426C18.2435 18.8309 17.3017 18.5024 16.3262 18.5005ZM14.6727 21.1673C15.1147 20.7385 15.7066 20.4993 16.3224 20.5005C16.9375 20.5017 17.5278 20.7426 17.968 21.1721L18.3007 21.5003C18.6895 21.8839 19.3141 21.8845 19.7037 21.5019L20.0374 21.1741C20.4792 20.7463 21.0705 20.5076 21.6857 20.5088C22.3017 20.5099 22.8929 20.7516 23.3333 21.1824L23.3338 21.1828C23.5454 21.3895 23.7134 21.6365 23.828 21.9092C23.9426 22.1819 24.0014 22.4748 24.0009 22.7706C24.0004 23.0664 23.9407 23.3591 23.8252 23.6315C23.7097 23.9038 23.5409 24.1503 23.3286 24.3563L23.325 24.3598L19.0007 28.5988L14.6683 24.3426L14.6665 24.3408C14.4549 24.134 14.2869 23.887 14.1724 23.6142C14.0579 23.3415 13.9992 23.0485 13.9998 22.7527C14.0004 22.4569 14.0602 22.1642 14.1758 21.8919C14.2914 21.6196 14.4603 21.3732 14.6727 21.1673L14.6727 21.1673Z" fill="url(#paint0_linear_160_4529)"/>
<defs>
<linearGradient id="paint0_linear_160_4529" x1="4.63345" y1="5.24968" x2="24.7648" y2="25.5915" gradientUnits="userSpaceOnUse">
<stop stop-color="#18ADC3"/>
<stop offset="1" stop-color="#012895"/>
</linearGradient>
</defs>
</svg>
