<svg width="36" height="36" viewBox="0 0 36 36" fill="none" xmlns="http://www.w3.org/2000/svg">
<path fill-rule="evenodd" clip-rule="evenodd" d="M7.5 7C7.36739 7 7.24022 7.05268 7.14645 7.14645C7.05268 7.24022 7 7.36739 7 7.5V13.5C7 13.6326 7.05268 13.7598 7.14645 13.8536C7.24022 13.9473 7.36739 14 7.5 14H13.5C13.6326 14 13.7598 13.9473 13.8536 13.8536C13.9473 13.7598 14 13.6326 14 13.5V7.5C14 7.36739 13.9473 7.24022 13.8536 7.14645C13.7598 7.05268 13.6326 7 13.5 7H7.5ZM5.73223 5.73223C6.20107 5.26339 6.83696 5 7.5 5H13.5C14.163 5 14.7989 5.26339 15.2678 5.73223C15.7366 6.20107 16 6.83696 16 7.5V13.5C16 14.163 15.7366 14.7989 15.2678 15.2678C14.7989 15.7366 14.163 16 13.5 16H7.5C6.83696 16 6.20107 15.7366 5.73223 15.2678C5.26339 14.7989 5 14.163 5 13.5V7.5C5 6.83696 5.26339 6.20107 5.73223 5.73223ZM7.5 22C7.36739 22 7.24022 22.0527 7.14645 22.1464C7.05268 22.2402 7 22.3674 7 22.5V28.5C7 28.6326 7.05268 28.7598 7.14645 28.8536C7.24021 28.9473 7.36739 29 7.5 29H13.5C13.6326 29 13.7598 28.9473 13.8536 28.8536C13.9473 28.7598 14 28.6326 14 28.5V22.5C14 22.3674 13.9473 22.2402 13.8536 22.1464C13.7598 22.0527 13.6326 22 13.5 22H7.5ZM5.73223 20.7322C6.20107 20.2634 6.83696 20 7.5 20H13.5C14.163 20 14.7989 20.2634 15.2678 20.7322C15.7366 21.2011 16 21.837 16 22.5V28.5C16 29.163 15.7366 29.7989 15.2678 30.2678C14.7989 30.7366 14.163 31 13.5 31H7.5C6.83696 31 6.20108 30.7366 5.73223 30.2678C5.26339 29.7989 5 29.163 5 28.5V22.5C5 21.837 5.26339 21.2011 5.73223 20.7322ZM22.1464 22.1464C22.2402 22.0527 22.3674 22 22.5 22H28.5C28.6326 22 28.7598 22.0527 28.8536 22.1464C28.9473 22.2402 29 22.3674 29 22.5V28.5C29 28.6326 28.9473 28.7598 28.8536 28.8536C28.7598 28.9473 28.6326 29 28.5 29H22.5C22.3674 29 22.2402 28.9473 22.1464 28.8536C22.0527 28.7598 22 28.6326 22 28.5V22.5C22 22.3674 22.0527 22.2402 22.1464 22.1464ZM22.5 20C21.837 20 21.2011 20.2634 20.7322 20.7322C20.2634 21.2011 20 21.837 20 22.5V28.5C20 29.163 20.2634 29.7989 20.7322 30.2678C21.2011 30.7366 21.837 31 22.5 31H28.5C29.163 31 29.7989 30.7366 30.2678 30.2678C30.7366 29.7989 31 29.163 31 28.5V22.5C31 21.837 30.7366 21.2011 30.2678 20.7322C29.7989 20.2634 29.163 20 28.5 20H22.5ZM20 10.5C20 9.94772 20.4477 9.5 21 9.5H24.5V6C24.5 5.44772 24.9477 5 25.5 5C26.0523 5 26.5 5.44772 26.5 6V9.5H30C30.5523 9.5 31 9.94772 31 10.5C31 11.0523 30.5523 11.5 30 11.5H26.5V15C26.5 15.5523 26.0523 16 25.5 16C24.9477 16 24.5 15.5523 24.5 15V11.5H21C20.4477 11.5 20 11.0523 20 10.5Z" fill="url(#paint0_linear_160_4560)"/>
<defs>
<linearGradient id="paint0_linear_160_4560" x1="9.63328" y1="9.04892" x2="26.5504" y2="29.1007" gradientUnits="userSpaceOnUse">
<stop stop-color="#18ADC3"/>
<stop offset="1" stop-color="#012895"/>
</linearGradient>
</defs>
</svg>
