<svg width="36" height="36" viewBox="0 0 36 36" fill="none" xmlns="http://www.w3.org/2000/svg">
<path fill-rule="evenodd" clip-rule="evenodd" d="M18.5145 2.14251C18.1978 1.9525 17.8022 1.9525 17.4855 2.14251L9.9855 6.64251C9.6843 6.82323 9.5 7.14874 9.5 7.5L9.50025 7.52237L9.5 7.54492V15.1838L2.50124 19.3831C2.44809 19.4137 2.39803 19.4491 2.35163 19.4887C2.13645 19.6721 2 19.9451 2 20.25V28.5C2 28.8513 2.1843 29.1768 2.4855 29.3575L9.9855 33.8575C10.196 33.9838 10.4342 34.0236 10.6589 33.9873C10.676 33.9846 10.6931 33.9814 10.71 33.9777C10.7411 33.971 10.7719 33.9629 10.8024 33.9532C10.8185 33.9481 10.8344 33.9426 10.8503 33.9367C10.9135 33.9131 10.9746 33.883 11.0323 33.8468L18.2404 29.5219L24.9567 33.8396L24.971 33.8486C25.1753 33.9761 25.4083 34.0208 25.6304 33.9915C25.6777 33.9853 25.7247 33.9756 25.7709 33.9626C25.8629 33.9368 25.9514 33.8977 26.0333 33.8462L33.5145 29.3575C33.8157 29.1768 34 28.8513 34 28.5V20.2664C34.0031 20.0857 33.9573 19.9019 33.8575 19.7355C33.7665 19.5838 33.6415 19.4649 33.4982 19.3827L26.5 15.1838V7.51641C26.5031 7.33569 26.4573 7.15191 26.3575 6.9855C26.2665 6.83378 26.1415 6.7149 25.9982 6.63274L18.5145 2.14251ZM23.5563 7.5L18 4.16619L12.4437 7.5L18 10.8338L23.5563 7.5ZM19 12.5662V18.4838L24.5 15.1838V9.26619L19 12.5662ZM11.5 15.1838V9.26619L17 12.5662V18.4838L11.5 15.1838ZM25.5 16.9162L31.0563 20.25L25.5 23.5838L19.9437 20.25L25.5 16.9162ZM26.5 31.2338V25.3162L32 22.0162V27.9338L26.5 31.2338ZM19 27.6339C19.0137 27.6419 19.0273 27.6502 19.0408 27.6588L24.5 31.1683V25.3162L19 22.0162V27.6339ZM16.0821 20.2654L10.5 16.9162L4.94365 20.25L10.5534 23.6158L16.0821 20.2654ZM11.5 25.3808L17 22.0478V27.9338L11.5 31.2338V25.3808ZM9.5 25.3162V31.2338L4 27.9338V22.0162L9.5 25.3162Z" fill="url(#paint0_linear_160_4536)"/>
<defs>
<linearGradient id="paint0_linear_160_4536" x1="7.70253" y1="6.9833" x2="28.5237" y2="31.6625" gradientUnits="userSpaceOnUse">
<stop stop-color="#18ADC3"/>
<stop offset="1" stop-color="#012895"/>
</linearGradient>
</defs>
</svg>
