<svg width="36" height="36" viewBox="0 0 36 36" fill="none" xmlns="http://www.w3.org/2000/svg">
<path fill-rule="evenodd" clip-rule="evenodd" d="M10.2218 8.72183C12.2847 6.65893 15.0826 5.5 18 5.5C20.9174 5.5 23.7153 6.65893 25.7782 8.72183C27.8411 10.7847 29 13.5826 29 16.5V17.5359C28.3971 17.1878 27.7082 17 27 17H25.5C24.4391 17 23.4217 17.4214 22.6716 18.1716C21.9214 18.9217 21.5 19.9391 21.5 21V25.5C21.5 26.5609 21.9214 27.5783 22.6716 28.3284C23.4217 29.0786 24.4391 29.5 25.5 29.5H25.6138C25.2904 29.9269 24.7464 30.3729 23.9169 30.7876C22.4544 31.5189 20.3639 32 18 32C17.4477 32 17 32.4477 17 33C17 33.5523 17.4477 34 18 34C20.6071 34 23.0166 33.4739 24.8113 32.5765C26.2478 31.8583 27.4914 30.7864 27.8769 29.4027C28.6102 29.2379 29.2885 28.8683 29.8284 28.3284C30.5786 27.5783 31 26.5609 31 25.5V21V16.5C31 13.0522 29.6304 9.74558 27.1924 7.30761C24.7544 4.86964 21.4478 3.5 18 3.5C14.5522 3.5 11.2456 4.86964 8.80761 7.30761C6.36964 9.74558 5 13.0522 5 16.5V21V25.5C5 26.5609 5.42143 27.5783 6.17157 28.3284C6.92172 29.0786 7.93913 29.5 9 29.5H10.5C11.5609 29.5 12.5783 29.0786 13.3284 28.3284C14.0786 27.5783 14.5 26.5609 14.5 25.5V21C14.5 19.9391 14.0786 18.9217 13.3284 18.1716C12.5783 17.4214 11.5609 17 10.5 17H9C8.29177 17 7.6029 17.1878 7 17.5359V16.5C7 13.5826 8.15893 10.7847 10.2218 8.72183ZM27 27.5C27.5304 27.5 28.0391 27.2893 28.4142 26.9142C28.7893 26.5391 29 26.0304 29 25.5V21C29 20.4696 28.7893 19.9609 28.4142 19.5858C28.0391 19.2107 27.5304 19 27 19H25.5C24.9696 19 24.4609 19.2107 24.0858 19.5858C23.7107 19.9609 23.5 20.4696 23.5 21V25.5C23.5 26.0304 23.7107 26.5391 24.0858 26.9142C24.4609 27.2893 24.9696 27.5 25.5 27.5H27ZM7 25.5V21C7 20.4696 7.21071 19.9609 7.58579 19.5858C7.96086 19.2107 8.46957 19 9 19H10.5C11.0304 19 11.5391 19.2107 11.9142 19.5858C12.2893 19.9609 12.5 20.4696 12.5 21V25.5C12.5 26.0304 12.2893 26.5391 11.9142 26.9142C11.5391 27.2893 11.0304 27.5 10.5 27.5H9C8.46957 27.5 7.96086 27.2893 7.58579 26.9142C7.21071 26.5391 7 26.0304 7 25.5Z" fill="url(#paint0_linear_160_4501)"/>
<defs>
<linearGradient id="paint0_linear_160_4501" x1="9.63328" y1="8.24969" x2="29.7647" y2="28.5908" gradientUnits="userSpaceOnUse">
<stop stop-color="#18ADC3"/>
<stop offset="1" stop-color="#012895"/>
</linearGradient>
</defs>
</svg>
