<svg width="20" height="19" viewBox="0 0 20 19" fill="none" xmlns="http://www.w3.org/2000/svg">
<path d="M19.6223 0.250128C19.2812 -0.0391732 18.7453 -0.0805668 18.1913 0.141867H18.1904C17.6077 0.375673 1.69614 7.20062 1.0484 7.47946C0.930588 7.5204 -0.09834 7.90432 0.00764594 8.75948C0.10226 9.5305 0.929223 9.84982 1.03021 9.88666L5.07541 11.2718C5.34379 12.1651 6.33314 15.4612 6.55194 16.1653C6.6884 16.6043 6.91083 17.181 7.30066 17.2998C7.64273 17.4317 7.98298 17.3111 8.20314 17.1383L10.6763 14.8444L14.6687 17.958L14.7638 18.0148C15.0349 18.1349 15.2946 18.195 15.5425 18.195C15.7341 18.195 15.9178 18.159 16.0934 18.0872C16.6916 17.8415 16.9308 17.2716 16.9558 17.207L19.938 1.70618C20.12 0.878311 19.8671 0.457096 19.6223 0.250128ZM8.643 11.8258L7.27837 15.4648L5.91375 10.916L16.3759 3.18316L8.643 11.8258Z" fill="white"/>
</svg>
