<svg width="36" height="36" viewBox="0 0 36 36" fill="none" xmlns="http://www.w3.org/2000/svg">
<path fill-rule="evenodd" clip-rule="evenodd" d="M5.64645 8.64645C5.74022 8.55268 5.86739 8.5 6 8.5H18.5V9V16.5V24.5H14.373C14.1958 23.814 13.838 23.1811 13.3284 22.6716C12.5783 21.9214 11.5609 21.5 10.5 21.5C9.43913 21.5 8.42172 21.9214 7.67157 22.6716C7.16203 23.1811 6.80416 23.814 6.62701 24.5H5.5V9C5.5 8.86739 5.55268 8.74022 5.64645 8.64645ZM6.62701 26.5H4.5C3.94772 26.5 3.5 26.0523 3.5 25.5V9C3.5 8.33696 3.76339 7.70107 4.23223 7.23223C4.70107 6.76339 5.33696 6.5 6 6.5H19.5C20.0523 6.5 20.5 6.94772 20.5 7.5V8H27C27.3513 8 27.6768 8.1843 27.8575 8.4855L32.3575 15.9855C32.4507 16.1409 32.5 16.3188 32.5 16.5V25.5C32.5 26.0523 32.0523 26.5 31.5 26.5H29.373C29.1958 27.186 28.838 27.8189 28.3284 28.3284C27.5783 29.0786 26.5609 29.5 25.5 29.5C24.4391 29.5 23.4217 29.0786 22.6716 28.3284C22.162 27.8189 21.8042 27.186 21.627 26.5H19.5H14.373C14.1958 27.186 13.838 27.8189 13.3284 28.3284C12.5783 29.0786 11.5609 29.5 10.5 29.5C9.43913 29.5 8.42172 29.0786 7.67157 28.3284C7.16203 27.8189 6.80416 27.186 6.62701 26.5ZM21.627 24.5H20.5V17.5H30.5V24.5H29.373C29.1958 23.814 28.838 23.1811 28.3284 22.6716C27.5783 21.9214 26.5609 21.5 25.5 21.5C24.4391 21.5 23.4217 21.9214 22.6716 22.6716C22.162 23.1811 21.8042 23.814 21.627 24.5ZM27.5 25.5C27.5 24.9696 27.2893 24.4609 26.9142 24.0858C26.5391 23.7107 26.0304 23.5 25.5 23.5C24.9696 23.5 24.4609 23.7107 24.0858 24.0858C23.7107 24.4609 23.5 24.9696 23.5 25.5C23.5 26.0304 23.7107 26.5391 24.0858 26.9142C24.4609 27.2893 24.9696 27.5 25.5 27.5C26.0304 27.5 26.5391 27.2893 26.9142 26.9142C27.2893 26.5391 27.5 26.0304 27.5 25.5ZM12.5 25.5C12.5 24.9696 12.2893 24.4609 11.9142 24.0858C11.5391 23.7107 11.0304 23.5 10.5 23.5C9.96957 23.5 9.46086 23.7107 9.08579 24.0858C8.71071 24.4609 8.5 24.9696 8.5 25.5C8.5 26.0304 8.71071 26.5391 9.08579 26.9142C9.46086 27.2893 9.96957 27.5 10.5 27.5C11.0304 27.5 11.5391 27.2893 11.9142 26.9142C12.2893 26.5391 12.5 26.0304 12.5 25.5ZM20.5 15.5V10H26.4338L29.7338 15.5H20.5Z" fill="url(#paint0_linear_160_6800)"/>
<defs>
<linearGradient id="paint0_linear_160_6800" x1="8.66789" y1="10.0817" x2="22.7017" y2="31.0553" gradientUnits="userSpaceOnUse">
<stop stop-color="#18ADC3"/>
<stop offset="1" stop-color="#012895"/>
</linearGradient>
</defs>
</svg>
