<svg width="20" height="13" viewBox="0 0 20 13" fill="none" xmlns="http://www.w3.org/2000/svg">
<path d="M10.8932 12.5C4.05996 12.5 0.162399 7.80781 0 0H3.42286C3.53529 5.73073 6.05871 8.15816 8.05746 8.65866V0H11.2805V4.94244C13.2542 4.72973 15.3279 2.47748 16.0275 0H19.2505C18.9869 1.28489 18.4614 2.50148 17.7069 3.57366C16.9524 4.64585 15.9852 5.55057 14.8657 6.23123C16.1153 6.85317 17.2191 7.73348 18.1041 8.81406C18.9891 9.89464 19.6353 11.1509 20 12.5H16.4522C16.1248 11.3282 15.4594 10.2793 14.5394 9.48467C13.6194 8.69004 12.4858 8.18507 11.2805 8.03303V12.5H10.8932Z" fill="white"/>
</svg>
